<?xml version="1.0" encoding="UTF-8"?>
<svg width="44" height="64" viewBox="0 0 44 64" fill="none" xmlns="http://www.w3.org/2000/svg">
<path d="M10.1 21.9548V10.5348C10.1 4.97477 14.62 0.454773 20.18 0.454773H23.94C29.5 0.454773 34.02 4.97477 34.02 10.5348V22.0348C33.38 21.6548 32.7 21.2948 32.02 20.9548V10.5148C32.02 6.05477 28.4 2.43477 23.94 2.43477H20.18C15.72 2.43477 12.1 6.05477 12.1 10.5148V20.8748C11.42 21.2148 10.74 21.5748 10.1 21.9548ZM43.48 42.1548C43.48 30.3148 33.84 20.6748 22 20.6748C10.16 20.6748 0.52002 30.3148 0.52002 42.1548C0.52002 53.9948 10.16 63.6348 22 63.6348C33.84 63.6348 43.48 53.9948 43.48 42.1548ZM41.48 42.1548C41.48 52.8948 32.74 61.6348 22 61.6348C11.26 61.6348 2.52002 52.8948 2.52002 42.1548C2.52002 31.4148 11.26 22.6748 22 22.6748C32.74 22.6748 41.48 31.4148 41.48 42.1548Z" fill="#4F4545"/>
<path d="M24.36 39.8148C24.36 38.5148 23.3 37.4548 22 37.4548C20.7 37.4548 19.64 38.5148 19.64 39.8148C19.64 40.7948 20.22 41.6148 21.06 41.9748V48.4748H23.06V41.8948C23.82 41.4948 24.36 40.7348 24.36 39.8148Z" fill="#F36A20"/>
</svg>
