<?xml version="1.0" encoding="UTF-8"?>
<svg width="74" height="55" viewBox="0 0 74 55" fill="none" xmlns="http://www.w3.org/2000/svg">
<g clip-path="url(#clip0)">
<path d="M63.1605 21.2318H62.9011H61.4045C61.2249 21.2318 61.0653 21.2717 60.9056 21.2916C58.3315 21.551 56.3161 23.7061 56.3161 26.3401V32.3664L56.9347 32.0073C57.214 31.8277 57.5133 31.688 57.8326 31.5283L58.0721 31.4086V26.3401C58.0721 24.664 59.3093 23.2871 60.9056 23.0476C61.0653 23.0277 61.2449 22.9878 61.4045 22.9878H62.9011H63.1605C64.9964 22.9878 66.5129 24.4844 66.5129 26.3202V31.4286L66.7524 31.5483C67.0517 31.688 67.351 31.8476 67.6503 32.0272L68.2689 32.4064V26.3401C68.249 23.5066 65.9741 21.2318 63.1605 21.2318Z" fill="#F36A20"/>
<path d="M69.6458 35.2599C67.7701 33.5239 65.3955 32.586 62.9011 32.4264C62.542 32.4064 62.2027 32.3465 61.8236 32.3665C61.5043 32.3865 61.205 32.4463 60.9057 32.4862C58.3714 32.8055 56.0168 33.9429 54.2608 35.8586C54.1011 36.0382 54.0014 36.2178 53.8417 36.3973C53.4027 36.9162 53.0236 37.4749 52.7043 38.0735C51.7664 39.7697 51.2875 41.6853 51.3674 43.6808C51.3674 43.9003 51.4272 44.1198 51.4671 44.3393C51.527 45.0178 51.6667 45.6962 51.8463 46.3348C53.1832 50.8645 57.3537 54.157 62.2626 54.157C62.4023 54.157 62.542 54.157 62.7016 54.157C68.7079 53.9175 73.3973 48.849 73.1578 42.8427C73.0181 39.9094 71.781 37.2354 69.6458 35.2599ZM71.302 42.9026C71.302 42.8826 71.302 42.8826 71.302 42.9026C71.5016 47.8912 67.5905 52.1016 62.6018 52.3012C58.5311 52.4209 55.059 49.9066 53.7619 46.3148C53.5225 45.6763 53.3828 45.0177 53.283 44.3193C53.263 44.0799 53.1832 43.8404 53.1832 43.601C53.1234 42.1044 53.4626 40.6676 54.1011 39.3706C54.4005 38.752 54.7596 38.1933 55.1787 37.6545C55.3184 37.4749 55.4381 37.2753 55.5977 37.1157C57.0145 35.5992 58.8703 34.6613 60.8857 34.342C61.225 34.2821 61.5442 34.2223 61.8835 34.2023C62.0032 34.2023 62.1229 34.2023 62.2426 34.2023C62.4621 34.2023 62.6617 34.2422 62.8812 34.2622C64.9166 34.4019 66.8522 35.2001 68.3887 36.6168C70.1646 38.2332 71.2023 40.4681 71.302 42.9026C71.302 42.8826 71.302 42.8826 71.302 42.9026Z" fill="#F36A20"/>
<path d="M62.8812 41.0068C62.6816 40.907 62.4821 40.8272 62.2426 40.8272C61.5043 40.8272 60.9057 41.4259 60.9057 42.1642C60.9057 42.6431 61.1651 43.0821 61.5642 43.3215V43.5211V44.02V45.4168V46.4345H63.0009V43.2617C63.38 43.0023 63.5996 42.6032 63.5996 42.1642C63.5996 41.6653 63.3002 41.2463 62.8812 41.0068Z" fill="#4F4545"/>
<path d="M59.1696 0.738342H4.6934C2.63807 0.738342 0.961884 2.41453 0.961884 4.4499V42.5832C0.961884 44.6386 2.63807 46.3148 4.6934 46.3148H49.8907C49.7311 45.6563 49.6313 44.9977 49.5714 44.3193H4.6934C4.59363 44.3193 4.51381 44.2794 4.41404 44.2594L25.4662 24.8835L26.8431 26.1406C28.2399 27.4377 30.0957 28.0762 31.9315 28.0762C33.7673 28.0762 35.6231 27.4377 37.0199 26.1406L38.3968 24.8835L51.3075 36.7764C51.6467 36.1978 52.0258 35.639 52.4648 35.1202L39.8735 23.5266L60.8458 4.21045C60.8658 4.29027 60.9057 4.37009 60.9057 4.46986V19.5556C61.0853 19.5356 61.2449 19.4957 61.4045 19.4957H62.9011V4.4499C62.8812 2.41453 61.2249 0.738342 59.1696 0.738342ZM3.01721 42.8427C2.99726 42.7628 2.95735 42.683 2.95735 42.5832V4.46986C2.95735 4.39004 2.99726 4.31022 3.01721 4.21045L23.9896 23.5266L3.01721 42.8427ZM35.663 24.6839C33.6077 26.5796 30.2553 26.5796 28.18 24.6839L4.43399 2.79367C4.53377 2.77371 4.61358 2.73381 4.71336 2.73381H59.1896C59.2893 2.73381 59.3691 2.77371 59.4689 2.79367L35.663 24.6839Z" fill="#4F4545"/>
</g>
<defs>
<clipPath id="clip0">
<rect x="0.333313" width="73.3333" height="55" fill="white"/>
</clipPath>
</defs>
</svg>
