<?xml version="1.0" encoding="UTF-8"?>
<svg width="40px" height="21px" viewBox="0 0 40 21" version="1.1" xmlns="http://www.w3.org/2000/svg" xmlns:xlink="http://www.w3.org/1999/xlink">
    <g id="Bask" stroke="none" stroke-width="1" fill="none" fill-rule="evenodd">
        <g id="Landing_Desktop" transform="translate(-700.000000, -7031.000000)" fill="#FFFFFF">
            <g id="2.0-footer" transform="translate(0.000000, 6970.000000)">
                <g id="Group-2" transform="translate(616.000000, 61.000000)">
                    <g id="Group-3" transform="translate(84.000000, 0.000000)">
                        <path d="M20.5053906,0.202042039 C20.2319531,-0.0689735856 19.765625,-0.0653017106 19.4971094,0.200792039 L0.20875,19.498917 C0.074453125,19.6332139 0,19.811417 0,20.0030577 C0,20.1922764 0.074453125,20.3704795 0.20875,20.5047764 C0.478515625,20.7769639 0.94609375,20.775792 1.21335937,20.5061045 L20.0011719,1.71087016 L38.7853906,20.5061045 C39.0551563,20.7733702 39.5239063,20.7733702 39.79375,20.5061045 C39.9267969,20.3705577 40,20.1922764 40,20.0030577 C40,19.811417 39.9267969,19.6332139 39.79375,19.498917 L20.5053906,0.202042039 Z" id="Fill-1"></path>
                    </g>
                </g>
            </g>
        </g>
    </g>
</svg>