<svg xmlns="http://www.w3.org/2000/svg" viewBox="0 0 1078.19 157.47"><defs><style>.cls-1{fill:#5f5454;}.cls-2{fill:#f36a20;}</style></defs><title>20</title><g id="Layer_2" data-name="Layer 2"><g id="Layer_1-2" data-name="Layer 1"><path class="cls-1" d="M611.22,0c22.27,0,46.55,9.8,46.55,39a37.77,37.77,0,0,1-22.72,35.41c11.14,2.9,28.29,12.92,28.29,37,0,21.15-15.82,44.54-49.67,44.54H544.18V0ZM608.1,65.71c14.26,0,25.62-8.25,25.62-23.39S623.25,20.94,609,20.94H568.68V65.71ZM609.66,135c18.71,0,28.73-9.13,28.73-25.16,0-14.92-11.8-23.61-29.62-23.61H568.68V135Z"/><path class="cls-1" d="M757,155.91a18.62,18.62,0,0,1-.23-3.79c-.22-2.45-.22-5.57-.22-8.9-5.34,5.34-15.59,14.25-39.2,14.25-23.16,0-41.43-13.14-41.43-37,0-25.84,21.61-33,33.42-34.75,6.23-.89,17.81-2.45,27.84-4,6-.67,12-1.56,18.48-2.45V74.62c0-11.81-4-21.16-25.17-21.16-22.5,0-25.39,11.58-26.06,19.6H680.55c0-15.82,7.8-39,49.45-39,41.87,0,49.22,21.38,49.22,40.09V137c0,6.91,0,14.7,1.55,18.93Zm-1.34-58.13-13.36,1.78-21.83,3.34c-10.91,1.78-20.27,5.79-20.27,17.6,0,8.24,5.57,18.26,21.38,18.26,12.25,0,20.5-3.34,26.51-8.91a27.11,27.11,0,0,0,7.57-19.15Z"/><path class="cls-1" d="M879.38,155.91V80.18c0-17.15-8.69-25.83-24.51-25.83-17.15,0-31.18,11.81-31.18,34.74v66.82H800.08V35.64h23.39V50.56c6.9-8.91,19.37-16.48,37.2-16.48,26.05,0,42.31,15.14,42.31,39v82.85Z"/><rect class="cls-1" x="923.76" y="0.01" width="23.61" height="155.9"/><polygon class="cls-1" points="985.79 94.47 1024.4 35.77 996.16 35.77 956.65 95.84 1004.67 155.91 1034.92 155.91 985.79 94.47"/><path class="cls-2" d="M213.67,155.91a19.45,19.45,0,0,1-.22-3.79c-.22-2.45-.22-5.57-.22-8.9-5.35,5.34-15.59,14.25-39.2,14.25-23.17,0-41.43-13.14-41.43-37,0-25.84,21.61-33,33.41-34.75,6.24-.89,17.82-2.45,27.84-4,6-.67,12-1.56,18.49-2.45V74.62c0-11.81-4-21.16-25.17-21.16-22.49,0-25.39,11.58-26.06,19.6H137.28c0-15.82,7.79-39,49.45-39C228.6,34.08,236,55.46,236,74.17V137c0,6.91,0,14.7,1.56,18.93Zm-1.33-58.13L199,99.56l-21.82,3.34c-10.92,1.78-20.27,5.79-20.27,17.6,0,8.24,5.57,18.26,21.38,18.26,12.25,0,20.49-3.34,26.51-8.91a27.11,27.11,0,0,0,7.57-19.15Z"/><path class="cls-2" d="M328.29,69.49C327.17,57,317.6,53,303.57,53c-9.58,0-24.73,2.9-24.73,15.15,0,7.12,4.68,10.91,12.48,12.91,21.82,5.35,62.36,1.79,62.36,38.31,0,16.26-9.8,38.09-52.34,38.09-26.73,0-47.66-13.14-48.33-38.09h24.5c0,9.58,6.68,19.16,25.17,19.16,20.26,0,27.17-9.13,27.17-17.16,0-7.79-4.23-11.13-14-13.58-22.27-5.35-60.58-1.11-60.58-38.31,0-20.27,17.38-35.41,49.23-35.41,39.86,0,46.55,23.83,47.22,35.41Z"/><rect class="cls-2" x="372.45" y="0.01" width="23.61" height="155.9"/><polygon class="cls-2" points="434.48 94.47 473.1 35.77 444.86 35.77 405.35 95.84 453.37 155.91 483.61 155.91 434.48 94.47"/><path class="cls-2" d="M74.82,64.3H35.9V88.69H74.82a21.39,21.39,0,0,1,0,42.77H24.39V24.4H66.05c11.56,0,21,9,21,20A19,19,0,0,1,85,52.93l23.13,7.79a42.8,42.8,0,0,0,3.31-16.37C111.39,19.9,91.05,0,66.05,0H0v155.9l74.82-.06c25,0,45.34-20.54,45.34-45.77S99.82,64.3,74.82,64.3"/><path class="cls-1" d="M1046,3.5V20.61h-3.9V3.5h-7.14V0h18.18V3.5Zm19.29,17.11L1060,5.22V20.61h-3.89V0H1062l5.15,15.66L1072.64,0h5.55V20.61h-3.9V5.22l-5.41,15.39Z"/></g></g></svg>