<?xml version="1.0" encoding="UTF-8"?>
<svg width="56" height="64" viewBox="0 0 56 64" fill="none" xmlns="http://www.w3.org/2000/svg">
<path d="M25.8572 56.3267H18.8734V58.3108H25.8572V56.3267Z" fill="#4F4545"/>
<path d="M42.1263 10.5352V3.51174C42.1263 2.5838 41.7591 1.69357 41.1048 1.03555C40.4505 0.377541 39.5623 0.00524262 38.6344 0H6.09624C5.16831 0.00524262 4.28017 0.377541 3.62588 1.03555C2.97158 1.69357 2.60432 2.5838 2.60434 3.51174V58.5885C2.60434 59.5147 2.97223 60.4028 3.62709 61.0577C4.28195 61.7125 5.17013 62.0804 6.09624 62.0804H38.6344C39.5605 62.0804 40.4487 61.7125 41.1036 61.0577C41.7584 60.4028 42.1263 59.5147 42.1263 58.5885V49.0255H40.1423V52.5571H4.58837V6.92428H40.1423V10.5352H42.1263ZM40.1423 54.561V58.529C40.1423 58.9289 39.9834 59.3125 39.7006 59.5952C39.4179 59.878 39.0343 60.0369 38.6344 60.0369H6.09624C5.69633 60.0369 5.31279 59.878 5.03001 59.5952C4.74724 59.3125 4.58837 58.9289 4.58837 58.529V54.561H40.1423ZM4.58837 4.96009V3.45222C4.58834 3.05046 4.74657 2.66486 5.02879 2.37892C5.31101 2.09299 5.69451 1.92973 6.09624 1.92451H38.6344C39.0361 1.92973 39.4196 2.09299 39.7019 2.37892C39.9841 2.66486 40.1423 3.05046 40.1423 3.45222V4.96009H4.58837Z" fill="#4F4545"/>
<path d="M49.9037 47.0414H32.3847C31.4586 47.0414 30.5704 46.6736 29.9156 46.0187C29.2607 45.3638 28.8928 44.4757 28.8928 43.5496V31.0501C28.8902 30.5899 28.9786 30.1337 29.1529 29.7077C29.3272 29.2818 29.584 28.8945 29.9085 28.5681C30.233 28.2418 30.6189 27.9828 31.0438 27.8061C31.4688 27.6294 31.9245 27.5384 32.3847 27.5384H49.9037C50.364 27.5384 50.8197 27.6294 51.2446 27.8061C51.6696 27.9828 52.0554 28.2418 52.3799 28.5681C52.7044 28.8945 52.9612 29.2818 53.1355 29.7077C53.3099 30.1337 53.3983 30.5899 53.3956 31.0501V43.5694C53.3904 44.4921 53.0202 45.3751 52.3659 46.0257C51.7116 46.6763 50.8264 47.0415 49.9037 47.0414ZM32.3847 29.5026C31.983 29.5078 31.5995 29.6711 31.3173 29.957C31.035 30.2429 30.8768 30.6285 30.8769 31.0303V43.5496C30.8769 43.9495 31.0357 44.333 31.3185 44.6158C31.6013 44.8985 31.9848 45.0574 32.3847 45.0574H49.9037C50.3037 45.0574 50.6872 44.8985 50.97 44.6158C51.2527 44.333 51.4116 43.9495 51.4116 43.5496V31.0501C51.4116 30.6484 51.2534 30.2628 50.9712 29.9768C50.689 29.6909 50.3055 29.5276 49.9037 29.5224L32.3847 29.5026Z" fill="#F36A20"/>
<path d="M49.6855 25.8718H47.7014V19.6816C47.7014 16.8444 44.8047 14.5429 41.2136 14.5429C37.6225 14.5429 34.7457 16.8444 34.7457 19.6816V25.8718H32.7617V19.6816C32.7617 15.7135 36.5908 12.4994 41.293 12.4994C45.9952 12.4994 49.8442 15.7135 49.8442 19.6816L49.6855 25.8718Z" fill="#4F4545"/>
</svg>
