<?xml version="1.0" encoding="UTF-8" standalone="no"?>
<svg width="33" height="32" viewBox="0 0 33 32" fill="none" xmlns="http://www.w3.org/2000/svg">
<path d="M6.97751 26.3492L8.36478 29.3472L5.00848 29.0252L5.65737 28.1258C4.25876 26.9597 3.07403 25.5622 2.15563 23.9952C0.12886 20.5068 -0.498121 16.3881 0.3998 12.4612C1.29772 8.5342 3.65451 5.08764 6.99989 2.80924L7.63758 3.73085C5.7367 5.00694 4.15845 6.70152 3.02588 8.68248C1.89331 10.6634 1.23701 12.8772 1.10815 15.1513C0.979295 17.4254 1.38136 19.6983 2.28301 21.7928C3.18466 23.8873 4.56151 25.7468 6.30625 27.2263L6.97751 26.3492ZM33 19.0318L31.6239 16.0227L29.6773 18.7098L30.796 18.8208C30.3707 21.0554 29.4331 23.1628 28.0557 24.9802C26.6784 26.7975 24.8982 28.2759 22.853 29.301C20.8077 30.3262 18.5523 30.8706 16.2611 30.892C13.97 30.9135 11.7045 30.4115 9.64017 29.4249L9.14792 30.4242C11.3749 31.4878 13.8193 32.0267 16.2905 31.999C18.7618 31.9713 21.1932 31.3776 23.3955 30.2644C25.5977 29.1511 27.5112 27.5483 28.9869 25.5807C30.4627 23.6131 31.4608 21.334 31.9036 18.9208L33 19.0318ZM11.1841 1.99867C13.3492 1.24324 15.6607 0.993566 17.9388 1.26906C20.217 1.54456 22.4005 2.33781 24.3195 3.58714C26.2385 4.83647 27.8413 6.50821 29.0034 8.47242C30.1655 10.4366 30.8555 12.6404 31.0198 14.9123L32.1385 14.8346C31.9757 12.4386 31.2558 10.1126 30.0353 8.0391C28.1642 4.79991 25.2022 2.31932 21.6703 1.03373C18.1384 -0.251864 14.2628 -0.260112 10.7254 1.01044L10.2555 0L8.32003 2.69821L11.6763 3.00911L11.1841 1.99867Z" fill="#4F4545"/>
<path d="M16.0953 7.65039C15.3681 7.65039 14.6409 9.79341 14.6409 10.7483V13.2356L8.27513 17.6771C8.25064 17.6924 8.23056 17.7137 8.21684 17.739C8.20311 17.7643 8.19622 17.7927 8.19681 17.8214V18.843C8.19636 18.8732 8.20324 18.9031 8.21687 18.9302C8.2305 18.9572 8.25048 18.9806 8.27513 18.9984C8.30097 19.012 8.32978 19.0191 8.35903 19.0191C8.38829 19.0191 8.4171 19.012 8.44294 18.9984L14.8087 16.8554L15.3345 20.9305L13.455 22.2407C13.4316 22.2596 13.4125 22.2832 13.399 22.31C13.3855 22.3369 13.3779 22.3662 13.3767 22.3962V23.1623C13.3758 23.1899 13.3814 23.2173 13.3931 23.2423C13.4047 23.2674 13.4221 23.2894 13.4438 23.3067C13.4979 23.3272 13.5576 23.3272 13.6116 23.3067L15.6254 22.6959L15.9722 23.6842C15.9823 23.7203 16.0043 23.752 16.0348 23.7742C16.0652 23.7964 16.1023 23.8077 16.14 23.8063C16.1831 23.8236 16.2312 23.8236 16.2743 23.8063C16.2801 23.7807 16.2801 23.7542 16.2743 23.7286L16.5987 22.7293L18.6237 23.3178C18.6495 23.3314 18.6784 23.3385 18.7076 23.3385C18.7369 23.3385 18.7657 23.3314 18.7915 23.3178C18.8071 23.2785 18.8071 23.2349 18.7915 23.1956V22.4184C18.7902 22.39 18.7825 22.3623 18.769 22.3373C18.7554 22.3123 18.7364 22.2907 18.7132 22.274L16.8337 20.9749L17.3148 16.8998L23.7029 18.9873C23.7567 19.0089 23.8169 19.0089 23.8707 18.9873C23.9047 18.9554 23.9248 18.9116 23.9267 18.8652V17.8325C23.9273 17.8038 23.9204 17.7754 23.9066 17.7501C23.8929 17.7248 23.8728 17.7035 23.8483 17.6882L17.4378 13.2467V10.7372C17.5161 9.7712 16.7777 7.65039 16.0953 7.65039Z" fill="#F36A20"/>
</svg>
