<?xml version="1.0" encoding="UTF-8" standalone="no"?>
<svg width="31" height="32" viewBox="0 0 31 32" fill="none" xmlns="http://www.w3.org/2000/svg">
<path d="M26.8392 9.14683V10.3984L29.9289 12.5758V13.5119L25.8093 16.3711V3.20459H22.2047C22.3178 3.53799 22.4106 3.87776 22.4827 4.2221H24.7794V17.0834L17.91 21.8555L15.3764 20.1257L12.8841 21.8351L6.36479 17.4497V4.2221H8.42459C8.49669 3.87776 8.58955 3.53799 8.70266 3.20459H5.33488V16.7578L1.0299 13.8172V12.5758L4.35648 10.205V8.94333L0 12.0569V32H31V12.0569L26.8392 9.14683ZM1.0299 15.0484L12.0292 22.4558L1.0299 30.0159V15.0484ZM1.42126 30.9825L15.4279 21.3671L29.5169 30.9825H1.42126ZM29.9701 30.0159L18.8163 22.466L29.9186 14.7533L29.9701 30.0159Z" fill="#4F4545"/>
<path d="M19.4651 9.42133C20.2325 8.64552 20.7528 7.66436 20.9614 6.59935C21.1701 5.53434 21.058 4.43225 20.6391 3.42953C20.2202 2.42682 19.5127 1.56752 18.6044 0.95803C17.6961 0.348545 16.6268 0.0156408 15.5289 0.000537699C14.431 -0.0145654 13.3528 0.288796 12.4277 0.87306C11.5025 1.45732 10.7712 2.29683 10.3241 3.28763C9.87708 4.27843 9.73399 5.37702 9.91257 6.44736C10.0912 7.5177 10.5836 8.51278 11.3288 9.30941L9.54712 13.2065L12.2352 12.7995L13.8727 14.7225L15.3764 11.3444L16.88 14.7429L18.5381 12.8096L21.2365 13.2166L19.4651 9.42133ZM13.5946 12.8198L12.6574 11.7209L11.2671 11.9244L12.1425 10.0318C12.8129 10.5145 13.5832 10.8446 14.3979 10.9985L13.5946 12.8198ZM10.8654 5.54463C10.8674 4.64953 11.1379 3.77511 11.6428 3.03184C12.1476 2.28857 12.8641 1.7098 13.7017 1.36865C14.5393 1.02751 15.4605 0.939288 16.3489 1.11515C17.2372 1.291 18.0529 1.72304 18.6928 2.35669C19.3327 2.99033 19.7682 3.79714 19.9442 4.67519C20.1202 5.55324 20.0288 6.46313 19.6816 7.2899C19.3345 8.11668 18.747 8.82324 17.9936 9.32032C17.2401 9.81741 16.3545 10.0827 15.4484 10.0827C14.8457 10.0827 14.2489 9.96526 13.6922 9.73707C13.1355 9.50889 12.6298 9.17446 12.2041 8.75292C11.7784 8.33139 11.441 7.83104 11.2113 7.28051C10.9816 6.72998 10.864 6.1401 10.8654 5.54463ZM18.0747 11.7209L17.1375 12.8198L16.3445 11.0188C17.1673 10.89 17.9494 10.5767 18.6308 10.1031L19.4651 11.9244L18.0747 11.7209ZM15.4484 2.18686C14.7754 2.18484 14.1169 2.38032 13.5564 2.7485C12.9959 3.11668 12.5587 3.64099 12.3002 4.25496C12.0417 4.86893 11.9735 5.5449 12.1043 6.19719C12.2351 6.84948 12.559 7.44872 13.0349 7.91892C13.5109 8.38912 14.1174 8.70913 14.7776 8.83836C15.4379 8.9676 16.1221 8.90025 16.7435 8.64485C17.365 8.38944 17.8957 7.95749 18.2683 7.40375C18.641 6.85001 18.8389 6.19942 18.8368 5.53446C18.8368 4.64662 18.4798 3.79514 17.8444 3.16735C17.2089 2.53955 16.3471 2.18686 15.4484 2.18686ZM15.4484 7.87472C14.9795 7.87674 14.5205 7.7412 14.1296 7.48527C13.7387 7.22935 13.4335 6.86456 13.2527 6.43711C13.0718 6.00966 13.0234 5.5388 13.1136 5.08416C13.2039 4.62953 13.4287 4.21158 13.7595 3.88327C14.0904 3.55496 14.5124 3.33106 14.9722 3.23993C15.432 3.1488 15.9088 3.19455 16.3422 3.37137C16.7757 3.5482 17.1462 3.84815 17.407 4.23322C17.6677 4.61829 17.8069 5.07116 17.8069 5.53446C17.8083 5.84178 17.7483 6.14637 17.6306 6.43081C17.5128 6.71526 17.3394 6.974 17.1204 7.19226C16.9014 7.41052 16.641 7.58402 16.3542 7.70287C16.0673 7.82171 15.7595 7.88356 15.4484 7.8849V7.87472Z" fill="#F36A20"/>
</svg>
