<?xml version="1.0" encoding="UTF-8" standalone="no"?>
<svg width="31" height="32" viewBox="0 0 31 32" fill="none" xmlns="http://www.w3.org/2000/svg">
<path d="M30.9999 14.5969C31.0072 16.7314 30.548 18.8413 29.6549 20.7762C28.7617 22.7111 27.4567 24.4235 25.8328 25.7913C24.2089 27.1591 22.306 28.1487 20.2597 28.6896C18.2134 29.2304 16.0741 29.3093 13.9941 28.9205C14.174 28.6166 14.3285 28.2981 14.4559 27.9683C15.1494 28.0852 15.851 28.1461 16.554 28.1507C19.355 28.1547 22.0879 27.279 24.3734 25.6451C26.6589 24.0111 28.3838 21.6999 29.3087 19.0321C30.2337 16.3643 30.3129 13.4721 29.5354 10.7568C28.7578 8.04146 27.162 5.63766 24.9694 3.87885C22.7768 2.12004 20.0961 1.09341 17.2991 0.941397C14.5022 0.789383 11.7277 1.51952 9.36053 3.03051C6.99339 4.5415 5.15097 6.75843 4.08887 9.37375C3.02676 11.9891 2.79764 14.8731 3.43328 17.6258C3.12139 17.7781 2.81959 17.9507 2.52979 18.1424C2.02713 16.1393 1.95255 14.0512 2.311 12.0168C2.66945 9.98243 3.45274 8.04826 4.60884 6.34276C5.76493 4.63726 7.26739 3.19947 9.01642 2.12487C10.7655 1.05026 12.721 0.363429 14.7533 0.109988C16.7856 -0.143454 18.8481 0.0422934 20.8038 0.654893C22.7594 1.26749 24.5636 2.29293 26.0964 3.66309C27.6292 5.03326 28.8555 6.71681 29.694 8.60194C30.5326 10.4871 30.964 12.5306 30.9598 14.5969H30.9999ZM14.0544 24.9091C14.0544 26.3116 13.6422 27.6825 12.8701 28.8486C12.0979 30.0147 11.0004 30.9235 9.71637 31.4602C8.43232 31.9969 7.01939 32.1373 5.65625 31.8637C4.29311 31.5901 3.04099 30.9148 2.05822 29.9231C1.07545 28.9314 0.406174 27.668 0.135028 26.2925C-0.136117 24.917 0.00304476 23.4912 0.534916 22.1956C1.06679 20.8999 1.96748 19.7924 3.12309 19.0133C4.27871 18.2341 5.63734 17.8182 7.02718 17.8182C7.95001 17.8182 8.86379 18.0016 9.71637 18.358C10.5689 18.7143 11.3436 19.2367 11.9962 19.8951C12.6487 20.5536 13.1663 21.3352 13.5195 22.1956C13.8726 23.0559 14.0544 23.9779 14.0544 24.9091ZM13.0505 24.9091C13.0505 23.707 12.6972 22.5319 12.0354 21.5324C11.3735 20.5329 10.4328 19.7539 9.3322 19.2939C8.23159 18.8338 7.0205 18.7135 5.8521 18.948C4.68369 19.1825 3.61044 19.7614 2.76807 20.6114C1.9257 21.4614 1.35203 22.5444 1.11962 23.7234C0.887212 24.9024 1.00649 26.1244 1.46238 27.235C1.91827 28.3456 2.69029 29.2949 3.68082 29.9627C4.67135 30.6306 5.83589 30.987 7.02718 30.987C8.62466 30.987 10.1567 30.3467 11.2863 29.2068C12.4159 28.067 13.0505 26.5211 13.0505 24.9091ZM8.8141 22.3767L7.00711 24.2L5.20012 22.3767L4.4974 23.0959L6.29435 24.9091L4.4974 26.7325L5.20012 27.4517L7.00711 25.6283L8.8141 27.4517L9.52685 26.7325L7.71986 24.9091L9.52685 23.1161L8.8141 22.3767Z" fill="#4F4545"/>
<path d="M17.3873 13.9995V10.5249C18.1558 10.6081 18.886 10.9063 19.4955 11.386L20.1078 10.221C19.3111 9.61503 18.3535 9.26236 17.3572 9.20806V7.61768H16.1927V9.19793C14.3255 9.41066 13.2613 10.4945 13.2613 12.166C13.2613 14.1109 14.6467 14.6883 16.1927 15.1441V18.72C15.2481 18.6129 14.3462 18.2643 13.5726 17.707H13.5224L12.7996 18.8618C13.7756 19.6173 14.963 20.0427 16.1927 20.0774V21.5766H17.3873V20.0774C18.1685 20.0511 18.909 19.7193 19.4523 19.1522C19.9955 18.5852 20.299 17.8272 20.2986 17.0384C20.2986 15.0935 18.9232 14.4857 17.3873 13.9995ZM18.853 17.1296C18.853 17.9501 18.331 18.4971 17.3873 18.6795V15.5088C18.1503 15.7823 18.853 16.1774 18.853 17.1296ZM14.6969 11.9735C14.6969 11.1834 15.2089 10.687 16.1927 10.5452V13.5841C15.4097 13.3005 14.6969 12.8953 14.6969 11.9735Z" fill="#F36A20"/>
</svg>
