<?xml version="1.0" encoding="UTF-8" standalone="no"?>
<svg width="40" height="20" viewBox="0 0 40 20" fill="none" xmlns="http://www.w3.org/2000/svg">
<path d="M28.8717 15.6797L26.1653 16.6527L27.1383 19.3591L27.7646 18.0283C28.2568 18.1979 28.7616 18.3288 29.2744 18.4197L29.4533 17.3013C29.0437 17.226 28.6401 17.1213 28.2455 16.9882L28.8717 15.6797Z" fill="#4F4545"/>
<path d="M28.5473 1.64376L28.223 0.525391C27.3393 0.800722 26.5023 1.20793 25.7402 1.73323L26.3553 2.66148C27.0328 2.21779 27.7712 1.87497 28.5473 1.64376Z" fill="#4F4545"/>
<path d="M36.4206 3.5337L37.1811 2.72847C36.9046 2.45823 36.6094 2.20784 36.2976 1.97916C35.4976 1.38425 34.6062 0.923429 33.6583 0.614746L33.3228 1.6772C34.1642 1.93843 34.9575 2.33506 35.6713 2.85149C35.9062 3.08635 36.1746 3.31002 36.4206 3.5337Z" fill="#4F4545"/>
<path d="M39.4402 6.20675C39.1197 5.34302 38.6711 4.53244 38.1093 3.80225L37.2258 4.48445C37.7029 5.12463 38.08 5.83356 38.3442 6.58699L39.4402 6.20675Z" fill="#4F4545"/>
<path d="M32.1372 1.42034L32.3162 0.301969C31.4078 0.167573 30.4846 0.167573 29.5762 0.301969L29.7216 1.42034C30.5221 1.29714 31.3367 1.29714 32.1372 1.42034Z" fill="#4F4545"/>
<path d="M39.8205 7.48193L38.7021 7.70561C38.8225 8.26799 38.8825 8.84161 38.8811 9.41672C38.8811 9.65158 38.8811 9.88644 38.8811 10.1213L39.9995 10.2219C39.9995 9.95354 39.9995 9.68513 39.9995 9.41672C40.0068 8.76734 39.9469 8.11894 39.8205 7.48193Z" fill="#4F4545"/>
<path d="M30.8289 17.3906H30.6724V18.509H30.8513C31.7091 18.506 32.5628 18.3894 33.39 18.1623L33.088 17.0439C32.3555 17.2669 31.5947 17.3837 30.8289 17.3906Z" fill="#4F4545"/>
<path d="M37.3602 14.1804L37.0806 14.5383L37.9417 15.2541C38.0535 15.1198 38.1542 14.9856 38.2549 14.8403C38.978 13.8661 39.4955 12.755 39.7758 11.5746L38.6575 11.3174C38.4196 12.3484 37.9785 13.3218 37.3602 14.1804Z" fill="#4F4545"/>
<path d="M34.2063 16.708L34.6648 17.737C35.5032 17.3629 36.283 16.8695 36.9799 16.2719L36.2306 15.4331C35.6234 15.9571 34.9411 16.3868 34.2063 16.708Z" fill="#4F4545"/>
<path d="M15.2723 15.0197C13.894 16.5495 11.9834 17.4949 9.93123 17.6627C7.87903 17.8305 5.84026 17.2079 4.23185 15.9223C2.62344 14.6367 1.56693 12.7853 1.27835 10.7465C0.989781 8.7078 1.49096 6.63585 2.67939 4.95439C3.75165 3.51215 5.27267 2.46702 7.00348 1.98321C8.73428 1.49939 10.5768 1.60431 12.2415 2.28148L11.5257 3.55642L14.2993 2.78475L13.5276 0L12.8007 1.29731C11.2964 0.648915 9.64588 0.415273 8.02074 0.620674C6.39559 0.826074 4.85512 1.46302 3.55947 2.4653C2.26381 3.46758 1.26026 4.7986 0.653137 6.32001C0.0460149 7.84143 -0.142518 9.49768 0.107137 11.1166C0.361664 12.8807 1.12475 14.5324 2.30308 15.8698C3.48141 17.2071 5.0239 18.172 6.74193 18.6466C8.45996 19.1212 10.2791 19.0849 11.9768 18.542C13.6745 17.9992 15.1772 16.9734 16.3012 15.5901L15.2723 15.0197Z" fill="#4F4545"/>
<path d="M24.4876 3.43315C24.5863 3.43186 24.6834 3.45904 24.7672 3.51144C25.2257 3.89168 24.5994 5.63634 24.1073 6.25145L22.8324 7.83954L24.633 13.9458C24.6439 13.9685 24.6495 13.9934 24.6495 14.0185C24.6495 14.0437 24.6439 14.0686 24.633 14.0912L24.1073 14.7399C24.0915 14.747 24.0743 14.7507 24.057 14.7507C24.0396 14.7507 24.0225 14.747 24.0067 14.7399C23.9824 14.739 23.9586 14.7325 23.9372 14.7209C23.9159 14.7092 23.8975 14.6928 23.8836 14.6728L20.7969 10.1322L18.3813 12.4808L18.8957 14.2814C18.9065 14.3021 18.9121 14.3251 18.9121 14.3485C18.9121 14.3718 18.9065 14.3948 18.8957 14.4156L18.5043 14.9076C18.4716 14.9187 18.4363 14.9187 18.4036 14.9076C18.3791 14.9077 18.355 14.9016 18.3335 14.8899C18.312 14.8782 18.2938 14.8612 18.2806 14.8406L17.3076 13.4314L16.5807 13.9011H16.5136C16.4845 13.9105 16.4532 13.9105 16.4241 13.9011C16.4082 13.876 16.3997 13.8469 16.3997 13.8172C16.3997 13.7875 16.4082 13.7584 16.4241 13.7334L16.659 12.9169L15.0597 12.2795C15.0382 12.2704 15.0191 12.2567 15.0036 12.2393C14.9881 12.2218 14.9767 12.2012 14.9702 12.1788C14.9528 12.1358 14.9528 12.0877 14.9702 12.0446L15.3728 11.5525C15.3855 11.5348 15.4024 11.5205 15.4218 11.5108C15.4413 11.501 15.4629 11.4962 15.4847 11.4966L17.3523 11.6196L19.1194 8.74542L13.9749 6.84418C13.9518 6.83792 13.931 6.82506 13.9151 6.80719C13.8992 6.78931 13.8889 6.76719 13.8854 6.74353C13.8771 6.72409 13.8728 6.70316 13.8728 6.68202C13.8728 6.66088 13.8771 6.63995 13.8854 6.62051L14.411 5.96067C14.4255 5.94209 14.4442 5.92729 14.4656 5.91755C14.4871 5.90781 14.5105 5.90342 14.534 5.90475L20.8864 6.30737L22.2508 4.76401C22.8333 4.09073 23.6179 3.62389 24.4876 3.43315Z" fill="#F36A20"/>
</svg>
