<?xml version="1.0" encoding="UTF-8" standalone="no"?>
<svg width="31" height="32" viewBox="0 0 31 32" fill="none" xmlns="http://www.w3.org/2000/svg">
<path d="M8.60247 22.0407C7.65165 22.0429 6.72157 21.7649 5.92993 21.242C5.1383 20.7191 4.5207 19.9748 4.15532 19.1032C3.78995 18.2316 3.69321 17.272 3.87736 16.3459C4.06151 15.4197 4.51827 14.5686 5.18982 13.9003C5.86137 13.232 6.71752 12.7765 7.6499 12.5915C8.58229 12.4065 9.54898 12.5004 10.4276 12.8611C11.3063 13.2219 12.0574 13.8334 12.5858 14.6182C13.1143 15.403 13.3964 16.3258 13.3964 17.2698C13.3964 18.5332 12.8917 19.7451 11.993 20.6395C11.0942 21.5338 9.87491 22.0378 8.60247 22.0407ZM8.60247 13.5983C7.87063 13.5961 7.1546 13.8096 6.54503 14.2117C5.93547 14.6138 5.45978 15.1865 5.1782 15.8572C4.89662 16.5279 4.8218 17.2664 4.96323 17.9794C5.10466 18.6923 5.45598 19.3475 5.97269 19.8621C6.4894 20.3767 7.14828 20.7275 7.86589 20.87C8.58351 21.0126 9.3276 20.9405 10.0039 20.663C10.6803 20.3854 11.2585 19.9148 11.6653 19.3108C12.0721 18.7068 12.2893 17.9965 12.2893 17.2698C12.2893 16.298 11.9012 15.3658 11.2101 14.6775C10.519 13.9893 9.58128 13.6012 8.60247 13.5983Z" fill="#F36A20"/>
<path d="M17.1497 31.9999H16.0426C15.9683 30.0886 15.1514 28.2801 13.7632 26.9539C12.375 25.6277 10.5234 24.8869 8.59699 24.8869C6.67056 24.8869 4.81899 25.6277 3.4308 26.9539C2.0426 28.2801 1.22568 30.0886 1.15143 31.9999H0C0.079709 29.8006 1.01569 27.7178 2.61092 26.1898C4.20616 24.6619 6.33621 23.8081 8.55271 23.8081C10.7692 23.8081 12.8993 24.6619 14.4945 26.1898C16.0897 27.7178 17.0257 29.8006 17.1054 31.9999H17.1497Z" fill="#F36A20"/>
<path d="M5.9895 0V12.026C6.34494 11.8564 6.71561 11.7202 7.09665 11.6193V1.09927H29.8928V17.7972H24.5453L19.9285 22.524V17.7972H14.4592C14.4189 18.1686 14.3486 18.5362 14.2488 18.8965H18.8213V25.1953L24.9992 18.8965H30.9999V0H5.9895Z" fill="#4F4545"/>
<path d="M23.1391 4.57324H9.55444V5.67251H23.1391V4.57324Z" fill="#4F4545"/>
<path d="M27.3907 4.57324H24.8442V5.67251H27.3907V4.57324Z" fill="#4F4545"/>
</svg>
