<?xml version="1.0" encoding="UTF-8" standalone="no"?>
<svg width="39" height="32" viewBox="0 0 39 32" fill="none" xmlns="http://www.w3.org/2000/svg">
<path d="M16.7828 16.0229L16.0167 16.7085C17.3849 18.2261 18.1673 20.1831 18.223 22.2272C18.2788 24.2712 17.6043 26.2681 16.3209 27.8583C15.0375 29.4485 13.2296 30.5277 11.2225 30.9014C9.21543 31.2752 7.14107 30.919 5.37284 29.8971L6.20025 28.8125L3.59546 29.2423L4.02448 31.8411L4.82124 30.7361C6.79575 31.8644 9.10587 32.2544 11.3405 31.8368C13.5752 31.4192 15.5895 30.2209 17.0249 28.4553C18.4603 26.6897 19.2238 24.4712 19.1795 22.1947C19.1351 19.9181 18.2859 17.7312 16.7828 16.0229Z" fill="#4F4545"/>
<path d="M9.58147 13.803C11.0569 13.8048 12.5067 14.189 13.79 14.9182L13.0034 16.0232L15.6082 15.5935L15.1792 12.9537L14.3722 14.0894C12.9175 13.2311 11.2597 12.7788 9.57125 12.7798C7.72339 12.7857 5.91648 13.3256 4.36735 14.3346C2.81822 15.3437 1.59267 16.779 0.837781 18.4685C0.0828879 20.1579 -0.169287 22.0296 0.111517 23.859C0.392322 25.6885 1.19418 27.3979 2.42086 28.7821L3.18697 28.1068C2.08042 26.8677 1.35643 25.3336 1.10274 23.6906C0.849051 22.0476 1.07655 20.3662 1.75768 18.8501C2.4388 17.334 3.54431 16.0483 4.94023 15.1488C6.33614 14.2494 7.96254 13.7748 9.62233 13.7825L9.58147 13.803Z" fill="#4F4545"/>
<path d="M10.1328 22.2335V19.8495C10.6618 19.902 11.165 20.1043 11.5834 20.4327L12.043 19.5733C11.4878 19.1493 10.8195 18.9 10.1226 18.8571V17.793H9.26458V18.8878C8.72275 18.8878 8.20311 19.1034 7.81998 19.4871C7.43685 19.8709 7.22161 20.3914 7.22161 20.9341C7.22161 22.2949 8.2431 22.7042 9.26458 22.9804V25.436C8.60974 25.3598 7.98633 25.1128 7.45655 24.7198H7.40548L6.88452 25.5486C7.55591 26.072 8.37367 26.3725 9.22372 26.408V27.4312H10.092V26.449C10.3682 26.4492 10.6416 26.3934 10.8956 26.2849C11.1497 26.1763 11.3791 26.0173 11.5701 25.8174C11.761 25.6175 11.9096 25.381 12.0066 25.122C12.1037 24.863 12.1474 24.5869 12.135 24.3105C12.1656 22.9907 11.2054 22.5712 10.1328 22.2335ZM11.1543 24.4231C11.1543 24.6945 11.0467 24.9547 10.8551 25.1466C10.6636 25.3385 10.4038 25.4463 10.1328 25.4463V23.3181C10.6538 23.5022 11.1237 23.7785 11.1237 24.4231H11.1543ZM8.2431 20.8318C8.2431 20.2895 8.60062 19.9519 9.26458 19.8086V21.8549C8.72319 21.7424 8.2431 21.4559 8.2431 20.8318Z" fill="#F36A20"/>
<path d="M28.1926 10.6614H25.5265V9.63823H28.1926V10.6614ZM28.1926 12.411H25.5265V13.4342H28.1926V12.411ZM28.1926 6.87568H25.5265V7.89885H28.1926V6.87568ZM34.5462 6.87568H31.8801V7.89885H34.5462V6.87568ZM34.5462 9.63823H31.8801V10.6614H34.5462V9.63823ZM34.5462 12.411H31.8801V13.4342H34.5462V12.411ZM21.8287 6.87568H19.1627V7.89885H21.8287V6.87568ZM9.11124 6.87568H6.44517V7.89885H9.11124V6.87568ZM15.4751 9.63823H12.809V10.6614H15.4751V9.63823ZM9.11124 9.63823H6.44517V10.6614H9.11124V9.63823ZM15.4751 6.87568H12.809V7.89885H15.4751V6.87568ZM21.8287 9.63823H19.1627V10.6614H21.8287V9.63823ZM21.8287 12.411H19.1627V13.4342H21.8287V12.411ZM38.9999 0V23.6965H20.1331C20.1776 23.3573 20.2014 23.0156 20.2046 22.6734H37.9784V4.03128H3.02319V14.0379C2.66141 14.3166 2.32004 14.6209 2.00171 14.9485V0H38.9999ZM37.9784 1.02317H3.02319V3.00811H37.9784V1.02317Z" fill="#4F4545"/>
</svg>
