<?xml version="1.0" encoding="UTF-8"?>
<svg width="213px" height="43px" viewBox="0 0 213 43" version="1.1" xmlns="http://www.w3.org/2000/svg" xmlns:xlink="http://www.w3.org/1999/xlink">
    <title>AAdvantage_logo_2013</title>
    <defs>
        <linearGradient x1="49.982313%" y1="102.660556%" x2="49.982313%" y2="-90.2220887%" id="linearGradient-1">
            <stop stop-color="#ED1C24" offset="0%"></stop>
            <stop stop-color="#ED1C24" offset="33.47%"></stop>
            <stop stop-color="#751317" offset="75.46%"></stop>
            <stop stop-color="#751317" offset="100%"></stop>
        </linearGradient>
        <linearGradient x1="-0.703242436%" y1="49.6780385%" x2="123.845366%" y2="49.6780385%" id="linearGradient-2">
            <stop stop-color="#641F1F" offset="0%"></stop>
            <stop stop-color="#D32828" offset="71.94%"></stop>
            <stop stop-color="#D32828" offset="100%"></stop>
        </linearGradient>
        <linearGradient x1="19.0921666%" y1="47.369017%" x2="93.2359671%" y2="78.7981081%" id="linearGradient-3">
            <stop stop-color="#F2F6F7" offset="0%"></stop>
            <stop stop-color="#F2F6F7" offset="10%"></stop>
            <stop stop-color="#F2F6F7" offset="22.38%"></stop>
            <stop stop-color="#97A7AD" offset="100%"></stop>
        </linearGradient>
        <linearGradient x1="49.8925549%" y1="-13.7307444%" x2="49.8925549%" y2="126.65164%" id="linearGradient-4">
            <stop stop-color="#202F6E" offset="0%"></stop>
            <stop stop-color="#25B3ED" offset="67.81%"></stop>
            <stop stop-color="#25B3ED" offset="100%"></stop>
        </linearGradient>
    </defs>
    <g id="Bask" stroke="none" stroke-width="1" fill="none" fill-rule="evenodd">
        <g id="Landing_Desktop" transform="translate(-1068.000000, -2523.000000)" fill-rule="nonzero">
            <g id="1.4-secure-your-money" transform="translate(105.000000, 2290.000000)">
                <g id="Group-8" transform="translate(909.000000, 232.000000)">
                    <g id="AAdvantage_logo_2013-(1)" transform="translate(54.000000, 0.000000)">
                        <g id="g31739" transform="translate(211.049630, 41.368010) scale(-1, 1) rotate(-180.000000) translate(-211.049630, -41.368010) translate(209.174630, 40.118010)" fill="#445061">
                            <path d="M2.375,1.875 L2.75,0.375 L2.75,0.375 L3.125,1.875 L3.5,1.875 L3.75,0 L3.5,0 L3.25,1.5 L3.25,1.5 L2.875,0 L2.625,0 L2.25,1.5 L2.25,1.5 L2,0 L1.75,0 L2,1.875 L2.375,1.875 Z M1.5,1.875 L1.5,1.625 L1,1.625 L1,0 L0.75,0 L0.75,1.625 L0.25,1.625 L0.25,1.875 C0.125,1.875 1.5,1.875 1.5,1.875 Z" id="path31741"></path>
                        </g>
                        <g id="g31743" transform="translate(82.034254, 22.828750) scale(-1, 1) rotate(-180.000000) translate(-82.034254, -22.828750) translate(0.159254, 0.953750)" fill="#445061">
                            <g id="Group">
                                <g id="g31745">
                                    <g id="g31751" transform="translate(0.049500, 1.049500)">
                                        <path d="M158.625,17.875 C158.625,18 158.625,18.125 158.625,18.25 C158.625,19.625 158,21.875 155.375,21.875 C152.5,21.875 151.875,19.125 151.875,17.875 L158.625,17.875 Z M162.25,17.75 C162.25,17.25 162.125,15.75 162.125,15.5 L151.75,15.5 C151.75,12.875 153.375,10.75 156.75,10.75 C158.5,10.75 159.875,11.375 160.25,11.5 C160.5,11.625 160.625,11.75 160.875,11.75 C161,11.75 161.125,11.625 161.125,11.375 C161.125,11 161.25,9.5 161.25,8.75 C160.625,8.5 158.625,7.875 156.375,7.875 C150.625,7.875 148,10.875 148,16.25 C148,21.375 150.75,24.625 155.375,24.625 C160.75,24.625 162.25,20.75 162.25,17.75 L162.25,17.75 Z M138.625,22 C136.375,22 135.125,20.625 135.125,18.75 C135.125,16.75 136.25,15.5 138.625,15.5 C140.75,15.5 142,16.625 142,18.75 C142,20.75 140.75,22 138.625,22 L138.625,22 Z M139.75,8 L137.25,8 C137,8 136.625,8 136.25,8 C135.625,7.75 134.625,6.875 134.625,5.5 C134.625,3.75 136.125,2.875 138.375,2.875 C141.25,2.875 142.875,4.125 142.875,5.75 C143,7.125 142.125,8 139.75,8 L139.75,8 Z M138.25,0.125 C133.625,0.125 131.25,2 131.25,5 C131.25,7.25 133,8.25 134.125,8.625 C133.625,8.875 132.375,9.375 132.375,11 C132.375,12.75 133.875,13.375 134.5,13.625 C133.5,14 131.625,15.375 131.625,18.375 C131.625,21.75 134.25,24.5 138.75,24.5 C139.75,24.5 140.5,24.375 141.375,24.125 L146.75,24.125 C146.75,23.625 146.75,22.875 146.625,22.125 C146.625,21.625 146.25,21.625 145.75,21.625 L144.375,21.625 C144.75,21.375 145.5,20.375 145.5,19 C145.5,15.5 143.125,13.125 138.625,13.125 C138,13.125 137.25,13.25 136.75,13.25 C136.375,13.125 135.75,12.75 135.75,12.125 C135.75,11.25 136.25,10.75 137.875,10.75 L141,10.75 C144.75,10.75 146.625,9.125 146.625,6.25 C146.625,2.875 143.375,0.125 138.25,0.125 L138.25,0.125 Z M119,13.125 C119,11.75 119.875,10.5 121.625,10.5 C123.875,10.5 125.125,12.625 125.125,15.125 L125.125,16.25 L124.25,16.25 C120.75,16.375 119,15.25 119,13.125 L119,13.125 Z M122,24.625 C126.5,24.625 128.75,22.625 128.75,18.75 L128.75,12.375 C128.75,11 128.875,9.375 129,8.25 L126,8.25 C125.5,8.25 125.5,8.625 125.375,9 L125.25,10.375 L125.125,10.375 C124.625,9.625 123.25,8 120.375,8 C117.375,8 115.375,10.25 115.375,13.25 C115.375,17.5 120,18.875 124.25,18.875 L125.125,18.875 L125.125,19.375 C125.125,21.375 123.75,22 121.625,22 C119.625,22 118,21.375 117.625,21.125 C117.5,21 117.25,20.875 117.125,20.875 C116.875,20.875 116.875,21.125 116.875,21.25 C116.875,21.875 116.75,23.25 116.75,23.75 C117.25,23.75 119.5,24.625 122,24.625 L122,24.625 Z M106.375,13.5 L106.375,21.5 L104.125,21.5 L104.125,24.25 L106.375,24.25 L106.375,27.75 L110,27.75 L110,24.25 L113.875,24.25 L113.875,21.5 L110,21.5 L110,13 C110,11.625 110.625,10.875 112,10.875 C113,10.875 113.5,11.125 113.875,11.125 C114.125,11.125 114.25,11 114.25,10.625 C114.25,10.625 114.375,8.875 114.5,8.25 C114.125,8.125 113.25,7.875 111.875,7.875 C107.75,7.875 106.375,10.125 106.375,13.5 L106.375,13.5 Z M88.5,8.25 L88.5,19.375 C88.5,21 88.375,23 88.375,24.25 L91.25,24.25 C91.5,24.25 91.625,24.125 91.625,23.875 C91.625,23.5 91.625,21.875 91.625,21.875 L91.75,21.875 C92.75,23.5 94.125,24.625 96.625,24.625 C100.125,24.625 102,22.25 102,19.5 L102,8.25 L98.375,8.25 L98.375,18.5 C98.375,21.125 97.125,21.875 95.75,21.875 C93.875,21.875 92,20 92,16.25 L92,8.375 C92.125,8.25 88.5,8.25 88.5,8.25 Z M75.625,13.125 C75.625,11.75 76.5,10.5 78.25,10.5 C80.5,10.5 81.75,12.625 81.75,15.125 L81.75,16.25 L80.875,16.25 C77.25,16.375 75.625,15.25 75.625,13.125 L75.625,13.125 Z M78.5,24.625 C83,24.625 85.25,22.625 85.25,18.75 L85.25,12.375 C85.25,11 85.375,9.375 85.5,8.25 L82.5,8.25 C82,8.25 82,8.625 81.875,9 L81.75,10.375 L81.625,10.375 C81.125,9.625 79.75,8 76.875,8 C73.875,8 71.875,10.25 71.875,13.25 C71.875,17.5 76.5,18.875 80.75,18.875 L81.625,18.875 L81.625,19.375 C81.625,21.375 80.125,22 78.125,22 C76.125,22 74.5,21.375 74.125,21.125 C74,21 73.75,20.875 73.625,20.875 C73.375,20.875 73.375,21.125 73.375,21.25 C73.375,21.875 73.25,23.25 73.25,23.75 C73.75,23.75 76,24.625 78.5,24.625 L78.5,24.625 Z M55.125,24.25 L59.125,24.25 L63.125,12.5 L63.25,12.5 L67.125,24.25 L71,24.25 L65,8.25 L61.25,8.25 L55.125,24.25 Z M42.5,15.75 C42.5,13.125 43,10.75 45.875,10.75 C47.75,10.75 49.625,12.375 49.625,16.25 L49.625,21.5 C49.25,21.625 48.625,21.875 47.125,21.875 C44.125,21.75 42.5,19.75 42.5,15.75 L42.5,15.75 Z M49.625,31.5 L53.25,31.5 L53.25,13.125 C53.25,11.5 53.375,9.5 53.375,8.25 L50.5,8.25 C50.25,8.25 50.125,8.375 50.125,8.625 C50.125,9 50.125,10.625 50.125,10.625 L50,10.625 C49.5,9.625 48.125,7.875 45.125,7.875 C39.625,7.875 38.75,12.625 38.75,15.5 C38.75,21 42,24.625 47.25,24.625 C48.75,24.625 49.5,24.375 49.75,24.25 L49.75,31.5 L49.625,31.5 Z M24.25,16.125 L27.75,26.125 L27.875,26.125 L31.375,16.125 L24.25,16.125 Z M7.25,16.125 L10.75,26.125 L10.875,26.125 L14.375,16.125 L7.25,16.125 Z M30.25,30.125 L25.875,30.125 L19.5,13.25 L13.25,30.125 L8.875,30.125 L0.5,8.25 L4.5,8.25 L6.25,13.25 L15.5,13.25 L17.25,8.25 L21.625,8.25 L23.375,13.25 L32.625,13.25 L34.375,8.25 L38.625,8.25 C38.5,8.25 30.25,30.125 30.25,30.125 Z" id="path31753"></path>
                                    </g>
                                    <g id="g31755" transform="translate(58.833012, 32.261012)">
                                        <path d="M56.75,8.25 L56.75,8.25 L55.375,4.375 L58.125,4.375 L56.75,8.25 Z M59.25,1.25 L58.625,3.125 L55,3.125 L54.375,1.25 L52.875,1.25 L56.125,9.625 L57.875,9.625 L61,1.25 L59.25,1.25 Z M72.125,10.125 L73.625,10.125 L73.625,8.75 L72.125,8.75 L72.125,10.125 Z M72.25,7.75 L73.75,7.75 L73.75,1.25 L72.25,1.25 L72.25,7.75 Z M61.5,10.125 L63,10.125 L63,8.75 L61.5,8.75 C61.5,8.625 61.5,10.125 61.5,10.125 Z M61.5,7.75 L63,7.75 L63,1.25 L61.5,1.25 L61.5,7.75 Z M70.625,10 L69.125,10 L69.125,1.25 L70.625,1.25 C70.625,1.25 70.625,10 70.625,10 Z M66,4.375 L66,1.25 L64.5,1.25 L64.5,6 C64.5,6.5 64.5,7.375 64.375,7.625 L65.5,7.625 C65.625,7.625 65.625,7.625 65.625,7.5 C65.625,7.25 65.625,6.75 65.625,6.75 L65.625,6.75 C65.75,7 66.125,7.875 67.375,7.875 C67.75,7.875 68.125,7.75 68.125,7.75 C68.125,7.5 68.125,6.875 68.125,6.75 C68.125,6.625 68.125,6.625 68,6.625 C68,6.625 67.875,6.625 67.875,6.625 C67.75,6.625 67.625,6.75 67.25,6.75 C66.75,6.625 66,6.125 66,4.375 L66,4.375 Z M79.25,1.25 L79.25,5.375 C79.25,6.125 78.875,6.625 78.25,6.625 C77.375,6.625 76.75,5.625 76.75,4.375 L76.75,1.25 L75.25,1.25 L75.25,6 C75.25,6.5 75.25,7.25 75.125,7.75 L76.25,7.75 C76.375,7.75 76.375,7.75 76.375,7.625 C76.375,7.5 76.375,6.875 76.375,6.875 L76.375,6.875 C76.5,7.125 77,8 78.375,8 C79.75,8 80.5,7 80.5,6 L80.5,1.25 C80.75,1.25 79.25,1.25 79.25,1.25 Z M83.25,5.125 L86,5.125 C86,6.125 85.5,6.75 84.75,6.75 C83.75,6.75 83.25,6.125 83.25,5.125 L83.25,5.125 Z M86.875,2.75 C87,2.75 87,2.625 87,2.625 C87,2.375 87,1.75 87,1.625 C86.875,1.625 86,1.25 85,1.25 C83,1.25 81.75,2.25 81.75,4.625 C81.75,6.625 82.75,8 84.625,8 C86.5,8 87.375,6.75 87.375,5.25 C87.375,5.125 87.375,4.75 87.375,4.375 L83.25,4.375 C83.25,3.25 84,2.5 85.25,2.5 C86,2.25 86.5,2.5 86.875,2.75 C86.75,2.75 86.875,2.75 86.875,2.75 L86.875,2.75 Z M90.25,1.125 C92.125,1.125 93,1.875 93,3 C93,4.125 92.25,4.625 91.375,4.875 C91.125,5 90.875,5 90.625,5.125 C90,5.375 89.75,5.625 89.75,6 C89.75,6.375 90.125,6.625 90.875,6.625 C91.5,6.625 92.125,6.375 92.375,6.25 C92.375,6.25 92.5,6.25 92.5,6.25 C92.5,6.25 92.625,6.25 92.625,6.375 C92.625,6.625 92.625,7 92.625,7.375 C92.5,7.5 91.75,7.75 90.75,7.75 C89.125,7.75 88.25,6.875 88.25,5.875 C88.25,4.875 89,4.375 89.75,4.125 C89.875,4.125 90.25,4 90.5,3.875 C91.375,3.625 91.5,3.375 91.5,3 C91.5,2.5 91,2.25 90,2.25 C89.25,2.25 88.75,2.5 88.5,2.625 C88.5,2.625 88.375,2.625 88.375,2.625 C88.25,2.625 88.25,2.5 88.25,2.5 C88.25,2.375 88.25,1.75 88.25,1.5 C88.5,1.5 89.25,1.125 90.25,1.125 L90.25,1.125 Z M4.375,8.25 L4.375,8.25 L3,4.375 L5.75,4.375 L4.375,8.25 Z M6.875,1.25 L6.25,3.125 L2.625,3.125 L2,1.25 L0.5,1.25 L3.75,9.625 L5.5,9.625 L8.625,1.25 C8.375,1.25 6.875,1.25 6.875,1.25 Z M30.625,10.125 L32.125,10.125 L32.125,8.75 L30.625,8.75 L30.625,10.125 Z M30.625,7.75 L32.125,7.75 L32.125,1.25 L30.625,1.25 C30.625,1.25 30.625,7.75 30.625,7.75 Z M27.5,4.375 L27.5,1.25 L26,1.25 L26,6 C26,6.5 26,7.375 25.875,7.625 L27,7.625 C27.125,7.625 27.125,7.625 27.125,7.5 C27.125,7.25 27.125,6.75 27.125,6.75 L27.125,6.75 C27.25,7 27.625,7.875 28.875,7.875 C29.25,7.875 29.625,7.75 29.625,7.75 C29.625,7.5 29.625,6.875 29.625,6.75 C29.625,6.625 29.625,6.625 29.5,6.625 C29.375,6.625 29.375,6.625 29.375,6.625 C29.25,6.625 29.125,6.75 28.75,6.75 C28.25,6.625 27.5,6.125 27.5,4.375 L27.5,4.375 Z M16.75,1.25 L16.75,5.375 C16.75,6.125 16.5,6.75 15.625,6.75 C14.75,6.75 14.25,5.875 14.25,4.5 L14.25,1.25 L12.75,1.25 L12.75,5.375 C12.75,6 12.5,6.625 11.75,6.625 C10.875,6.625 10.375,5.75 10.375,4.375 L10.375,1.25 L8.875,1.25 L8.875,5.875 C8.875,6.5 8.875,7.375 8.75,7.625 L9.875,7.625 C10,7.625 10,7.625 10,7.5 C10,7.375 10,6.75 10,6.75 L10,6.75 C10.125,6.875 10.625,7.875 11.875,7.875 C13.125,7.875 13.625,7 13.75,6.75 C13.875,7 14.375,7.875 15.625,7.875 C16.875,7.875 17.875,7.125 17.875,5.75 L17.875,1.25 C18.25,1.25 16.75,1.25 16.75,1.25 Z M20.75,5.125 L23.5,5.125 C23.5,6.125 23,6.75 22.25,6.75 C21.375,6.75 20.875,6.125 20.75,5.125 L20.75,5.125 Z M24.375,2.75 C24.5,2.75 24.5,2.625 24.5,2.625 C24.5,2.375 24.5,1.75 24.5,1.625 C24.375,1.625 23.5,1.25 22.5,1.25 C20.5,1.25 19.25,2.25 19.25,4.625 C19.25,6.625 20.25,8 22.125,8 C24,8 24.875,6.75 24.875,5.25 C24.875,5.125 24.875,4.75 24.875,4.375 L20.75,4.375 C20.75,3.25 21.5,2.5 22.75,2.5 C23.5,2.25 24,2.5 24.375,2.75 C24.25,2.75 24.375,2.75 24.375,2.75 L24.375,2.75 Z M42.625,4.5 L42.375,4.5 C40.5,4.5 40.125,3.875 40.125,3.25 C40.125,2.75 40.5,2.25 41.125,2.25 C42,2.25 42.5,3.125 42.5,4 L42.5,4.5 L42.625,4.5 Z M43,1.25 C42.875,1.25 42.75,1.25 42.75,1.5 C42.75,1.75 42.75,2.125 42.75,2.125 L42.75,2.125 C42.625,2 42.125,1.125 40.75,1.125 C39.5,1.125 38.75,2.125 38.75,3.25 C38.75,4.75 40.25,5.5 42.375,5.5 L42.625,5.5 L42.625,5.75 C42.625,6.375 42.125,6.75 41.25,6.75 C40.5,6.75 39.75,6.5 39.5,6.375 C39.5,6.375 39.375,6.375 39.375,6.375 C39.25,6.375 39.25,6.375 39.25,6.5 C39.25,6.75 39.25,7.25 39.25,7.5 C39.5,7.625 40.375,7.875 41.375,7.875 C43.25,7.875 44.125,7 44.125,5.625 L44.125,3.125 C44.125,2.25 44.25,1.625 44.25,1.375 C44.25,1.25 43,1.25 43,1.25 Z M38,2.75 C38,2.75 38.125,2.75 38.125,2.625 C38.125,2.375 38.125,1.875 38.125,1.625 C37.875,1.5 37.25,1.25 36.375,1.25 C34.375,1.25 33.25,2.375 33.25,4.625 C33.25,6.75 34.25,8 36.375,8 C37,8 37.75,7.75 38.125,7.625 C38.125,7.375 38.125,6.875 38.125,6.625 C38.125,6.5 38.125,6.5 38,6.5 C38,6.5 37.875,6.5 37.875,6.5 C37.375,6.75 37,6.875 36.625,6.875 C35.375,6.875 34.875,6.125 34.875,4.75 C34.875,3.5 35.25,2.625 36.625,2.625 C37.125,2.625 37.625,2.75 37.875,3 C37.875,2.75 37.875,2.75 38,2.75 L38,2.75 Z M49.375,1.25 L49.375,5.375 C49.375,6.125 49,6.625 48.375,6.625 C47.5,6.625 46.875,5.625 46.875,4.375 L46.875,1.25 L45.375,1.25 L45.375,6 C45.375,6.5 45.375,7.25 45.25,7.75 L46.375,7.75 C46.5,7.75 46.5,7.75 46.5,7.625 C46.5,7.5 46.5,6.875 46.5,6.875 L46.5,6.875 C46.625,7.125 47.125,8 48.5,8 C49.875,8 50.625,7 50.625,6 L50.625,1.25 C50.875,1.25 49.375,1.25 49.375,1.25 Z" id="path31757"></path>
                                    </g>
                                </g>
                            </g>
                        </g>
                        <g id="g31759" transform="translate(196.409254, 34.078750) scale(-1, 1) rotate(-180.000000) translate(-196.409254, -34.078750) translate(183.909254, 24.703750)" fill="url(#linearGradient-1)">
                            <g id="g31761">
                                <g id="g31767">
                                    <g id="g31769">
                                        <path d="M0.5,11.875 L4.875,4.625 C7.25,0.75 11,0.875 12,0.875 L12,0.875 L24,0.875 L9.75,18.125 C3.25,17.875 -0.25,13.625 0.5,11.875" id="path31781"></path>
                                    </g>
                                </g>
                            </g>
                        </g>
                        <g id="g31783" transform="translate(188.909254, 27.203750) scale(-1, 1) rotate(-180.000000) translate(-188.909254, -27.203750) translate(183.909254, 22.203750)" fill="url(#linearGradient-2)">
                            <g id="g31785">
                                <g id="g31791">
                                    <g id="g31793">
                                        <path d="M0.125,2.625 C0.125,1.625 0.5,0.75 0.5,0.625 L0.5,0.625 C-0.25,2.375 3.25,6.625 9.875,6.875 L9.875,6.875 L7.625,9.625 C3.625,8.75 0.125,6.5 0.125,2.625" id="path31803"></path>
                                    </g>
                                </g>
                            </g>
                        </g>
                        <g id="g31805" transform="translate(188.909254, 25.328750) scale(-1, 1) rotate(-180.000000) translate(-188.909254, -25.328750) translate(178.909254, 18.453750)" fill="url(#linearGradient-3)">
                            <g id="g31807">
                                <g id="g31813">
                                    <g id="g31815">
                                        <path d="M0.5,10.125 C0.5,9.25 0.75,8.5 1.5,7.25 L1.5,7.25 L5.5,0.75 C5.5,0.75 5.125,1.625 5.125,2.75 L5.125,2.75 C5.125,6.75 8.625,9 12.625,9.75 L12.625,9.75 C13.75,10 15,10.125 16.125,10.125 L16.125,10.125 C17.125,10.125 18,10.125 18.75,9.875 L18.75,9.875 C18.375,11.375 17.25,13.625 11.125,13.625 L11.125,13.625 C5,13.375 0.5,12.5 0.5,10.125" id="path31827"></path>
                                    </g>
                                </g>
                            </g>
                        </g>
                        <g id="g31829" transform="translate(177.034254, 9.703750) scale(-1, 1) rotate(-180.000000) translate(-177.034254, -9.703750) translate(165.159254, 0.953750)" fill="url(#linearGradient-4)">
                            <g id="g31831">
                                <g id="g31837">
                                    <g id="g31839">
                                        <path d="M1,16.875 L9,3.875 C10.625,1.125 11.25,0.5 15.125,0.5 L15.125,0.5 L22.625,0.5 L12.25,13.5 C10,16.375 8.625,16.875 6.5,16.875 L6.5,16.875 L1,16.875 L1,16.875 Z" id="path31849"></path>
                                    </g>
                                </g>
                            </g>
                        </g>
                    </g>
                </g>
            </g>
        </g>
    </g>
</svg>