<?xml version="1.0" encoding="UTF-8"?>
<svg width="64" height="64" viewBox="0 0 64 64" fill="none" xmlns="http://www.w3.org/2000/svg">
<path d="M23.58 41.1C13.94 41.1 6.1 33.26 6.1 23.62C6.1 13.98 13.94 6.14001 23.58 6.14001C33.22 6.14001 41.06 13.98 41.06 23.62C41.06 25.5 40.76 27.36 40.18 29.12L38.28 28.5C38.8 26.94 39.06 25.28 39.06 23.62C39.06 15.08 32.12 8.14001 23.58 8.14001C15.04 8.14001 8.1 15.08 8.1 23.62C8.1 32.16 15.04 39.1 23.58 39.1C28.92 39.1 33.8 36.4 36.66 31.9C36.78 31.7 36.92 31.48 37.04 31.26L38.78 32.26C38.64 32.5 38.5 32.74 38.36 32.96C35.14 38.08 29.6 41.1 23.58 41.1Z" fill="#F36A20"/>
<path d="M12.86 23.48H10.86C10.86 16.44 16.6 10.7 23.64 10.7V12.7C17.7 12.7 12.86 17.54 12.86 23.48Z" fill="#4F4545"/>
<path d="M39.34 46.0201L38.86 44.0801C39.94 43.8201 41.12 43.1001 42.12 42.1201L43.54 43.5401C42.28 44.7801 40.78 45.66 39.34 46.0201Z" fill="#F36A20"/>
<path d="M42.7 35.34C44.8 31.92 46.04 27.92 46.04 23.62C46.04 11.24 35.98 1.18002 23.6 1.18002C11.22 1.18002 1.16 11.24 1.16 23.6C1.16 35.98 11.22 46.04 23.6 46.04C27.9 46.04 31.9 44.8 35.32 42.7L55.44 62.82L55.98 62.68C59.24 61.88 61.86 59.26 62.66 56L62.8 55.46L42.7 35.34ZM3.16 23.6C3.16 12.32 12.32 3.16002 23.6 3.16002C34.88 3.16002 44.04 12.34 44.04 23.6C44.04 34.86 34.88 44.06 23.6 44.06C12.32 44.06 3.16 34.88 3.16 23.6ZM56.06 60.6L37.02 41.56C38.74 40.26 40.28 38.74 41.56 37.02L60.6 56.06C59.9 58.18 58.18 59.9 56.06 60.6Z" fill="#4F4545"/>
</svg>
