<?xml version="1.0" encoding="UTF-8"?>
<svg width="54" height="64" viewBox="0 0 54 64" fill="none" xmlns="http://www.w3.org/2000/svg">
<path d="M40.26 29.7C40.26 36.88 34.42 42.72 27.24 42.72C20.06 42.72 14.22 36.88 14.22 29.7C14.22 22.52 20.06 16.68 27.24 16.68C30.26 16.68 33.04 17.72 35.24 19.46L36.66 18.04C34.08 15.96 30.8 14.7 27.22 14.7C18.94 14.7 12.2 21.44 12.2 29.72C12.2 38 18.94 44.74 27.22 44.74C35.5 44.74 42.24 38 42.24 29.72C42.24 27.48 41.74 25.36 40.84 23.44L39.32 24.96C39.92 26.42 40.26 28.02 40.26 29.7Z" fill="#F36A20"/>
<path d="M40.56 17.52L38.4 19.68L36.98 21.1L27.24 30.84L22.84 26.44L21.42 27.86L26.52 32.96C26.72 33.16 26.98 33.26 27.22 33.26C27.46 33.26 27.74 33.16 27.92 32.96L38.18 22.7L39.62 21.26L41.94 18.94L40.56 17.52Z" fill="#4F4545"/>
<path d="M52.78 8.31998C52.62 8.31998 36.26 7.43998 27.84 0.879983C27.48 0.599983 26.96 0.599983 26.6 0.879983C18.18 7.45998 1.84001 8.31998 1.66001 8.31998C1.12001 8.33998 0.700012 8.77998 0.700012 9.31998V29.72C0.700012 54.46 26.62 63.72 26.88 63.8C26.98 63.84 27.1 63.86 27.2 63.86C27.3 63.86 27.42 63.84 27.52 63.8C27.78 63.72 53.7 54.46 53.7 29.72V9.31998C53.74 8.77998 53.32 8.33998 52.78 8.31998ZM51.74 29.72C51.74 51.56 30.18 60.66 27.24 61.8C24.3 60.66 2.74001 51.56 2.74001 29.72V10.26C6.38001 9.97998 19.36 8.61998 27.24 2.91998C35.12 8.63998 48.1 9.99998 51.74 10.26V29.72Z" fill="#4F4545"/>
</svg>
