<?xml version="1.0" encoding="UTF-8"?>
<svg width="48" height="64" viewBox="0 0 48 64" fill="none" xmlns="http://www.w3.org/2000/svg">
<path d="M14.11 25.4H12.11V24.4C12.11 22.8399 12.4173 21.2951 13.0143 19.8537C13.6113 18.4124 14.4864 17.1028 15.5896 15.9996C16.6927 14.8964 18.0024 14.0214 19.4437 13.4243C20.8851 12.8273 22.4299 12.52 23.99 12.52H24.99V14.52H23.99C21.3793 14.5512 18.8844 15.6021 17.0382 17.4482C15.1921 19.2944 14.1412 21.7894 14.11 24.4V25.4Z" fill="#F36A20"/>
<path d="M23.99 62.52C21.8009 62.5147 19.703 61.6428 18.1551 60.0949C16.6072 58.547 15.7353 56.4491 15.73 54.26V53.26H17.73V54.26C17.73 55.9203 18.3895 57.5125 19.5635 58.6865C20.7375 59.8605 22.3298 60.52 23.99 60.52C25.6503 60.52 27.2425 59.8605 28.4165 58.6865C29.5905 57.5125 30.25 55.9203 30.25 54.26V53.26H32.25V54.26C32.25 55.3447 32.0364 56.4188 31.6213 57.421C31.2062 58.4231 30.5977 59.3337 29.8307 60.1007C29.0637 60.8677 28.1531 61.4762 27.151 61.8913C26.1488 62.3064 25.0747 62.52 23.99 62.52Z" fill="#F36A20"/>
<path d="M23.99 9.28C23.0723 9.28 22.1752 9.00787 21.4122 8.49802C20.6491 7.98817 20.0544 7.2635 19.7032 6.41565C19.352 5.5678 19.2601 4.63485 19.4392 3.73478C19.6182 2.83471 20.0601 2.00794 20.709 1.35903C21.358 0.71011 22.1847 0.268194 23.0848 0.0891586C23.9849 -0.0898768 24.9178 0.00200987 25.7657 0.3532C26.6135 0.704391 27.3382 1.29911 27.848 2.06216C28.3579 2.8252 28.63 3.7223 28.63 4.64C28.63 5.87061 28.1412 7.05081 27.271 7.92098C26.4008 8.79115 25.2206 9.28 23.99 9.28ZM23.99 2C23.4679 2 22.9575 2.15483 22.5233 2.44492C22.0892 2.73501 21.7508 3.14732 21.551 3.62972C21.3512 4.11211 21.2989 4.64293 21.4007 5.15504C21.5026 5.66715 21.754 6.13755 22.1232 6.50676C22.4925 6.87597 22.9629 7.12741 23.475 7.22927C23.9871 7.33114 24.5179 7.27886 25.0003 7.07904C25.4827 6.87923 25.895 6.54085 26.1851 6.10671C26.4752 5.67256 26.63 5.16214 26.63 4.64C26.63 3.93983 26.3519 3.26833 25.8568 2.77324C25.3617 2.27814 24.6902 2 23.99 2Z" fill="#4F4545"/>
<path d="M41.95 45.98H0.0100098V47.98H41.95V45.98Z" fill="#F36A20"/>
<path d="M44.57 55.26H3.43001C2.52297 55.26 1.65308 54.8996 1.01171 54.2583C0.370331 53.6169 0.0100117 52.747 0.0100117 51.84V46.66L4.55001 40.66C6.29063 38.3537 7.24416 35.5492 7.27001 32.66V24C7.41999 19.663 9.24828 15.5538 12.3694 12.5387C15.4905 9.52369 19.6605 7.8385 24 7.8385C28.3396 7.8385 32.5095 9.52369 35.6306 12.5387C38.7517 15.5538 40.58 19.663 40.73 24V32.48C40.7585 35.3656 41.7041 38.1673 43.43 40.48L47.99 46.48V51.66C48.0116 52.1233 47.9392 52.5862 47.7773 53.0209C47.6154 53.4556 47.3672 53.853 47.0477 54.1893C46.7283 54.5256 46.3441 54.7938 45.9183 54.9778C45.4925 55.1618 45.0339 55.2578 44.57 55.26ZM2.01001 47.26V51.78C2.01001 52.1566 2.15962 52.5178 2.42592 52.7841C2.69222 53.0504 3.0534 53.2 3.43001 53.2H44.57C44.9466 53.2 45.3078 53.0504 45.5741 52.7841C45.8404 52.5178 45.99 52.1566 45.99 51.78V47.32L41.83 41.78C39.8216 39.095 38.7343 35.833 38.73 32.48V24C38.5895 20.1873 36.9761 16.5776 34.229 13.9299C31.482 11.2822 27.8153 9.80283 24 9.80283C20.1847 9.80283 16.518 11.2822 13.771 13.9299C11.0239 16.5776 9.41053 20.1873 9.27001 24V32.48C9.26859 35.8367 8.1733 39.1015 6.15001 41.78L2.01001 47.26Z" fill="#4F4545"/>
</svg>
