<?xml version="1.0" encoding="UTF-8" standalone="no"?>
<svg
   xmlns:dc="http://purl.org/dc/elements/1.1/"
   xmlns:cc="http://creativecommons.org/ns#"
   xmlns:rdf="http://www.w3.org/1999/02/22-rdf-syntax-ns#"
   xmlns:svg="http://www.w3.org/2000/svg"
   xmlns="http://www.w3.org/2000/svg"
   xmlns:sodipodi="http://sodipodi.sourceforge.net/DTD/sodipodi-0.dtd"
   xmlns:inkscape="http://www.inkscape.org/namespaces/inkscape"
   width="87.031601"
   height="70.288101"
   viewBox="0 0 87.031601 70.288101"
   version="1.1"
   id="svg4534"
   sodipodi:docname="TCB Bank Icon 1.svg"
   style="fill:none"
   inkscape:version="0.92.4 (5da689c313, 2019-01-14)">
  <metadata
     id="metadata4540">
    <rdf:RDF>
      <cc:Work
         rdf:about="">
        <dc:format>image/svg+xml</dc:format>
        <dc:type
           rdf:resource="http://purl.org/dc/dcmitype/StillImage" />
        <dc:title></dc:title>
      </cc:Work>
    </rdf:RDF>
  </metadata>
  <defs
     id="defs4538" />
  <sodipodi:namedview
     pagecolor="#ffffff"
     bordercolor="#666666"
     borderopacity="1"
     objecttolerance="10"
     gridtolerance="10"
     guidetolerance="10"
     inkscape:pageopacity="0"
     inkscape:pageshadow="2"
     inkscape:window-width="2560"
     inkscape:window-height="1377"
     id="namedview4536"
     showgrid="false"
     fit-margin-top="0"
     fit-margin-left="0"
     fit-margin-right="0"
     fit-margin-bottom="0"
     inkscape:zoom="6.1449275"
     inkscape:cx="43.5156"
     inkscape:cy="35.145"
     inkscape:window-x="-8"
     inkscape:window-y="-8"
     inkscape:window-maximized="1"
     inkscape:current-layer="svg4534" />
  <path
     d="m 43.514,50.4388 c -3.1842,0 -6.297,-0.9442 -8.9446,-2.7133 -2.6477,-1.7691 -4.7112,-4.2836 -5.9298,-7.2255 -1.2186,-2.9419 -1.5374,-6.1791 -0.9162,-9.3021 0.6212,-3.1231 2.1546,-5.9919 4.4062,-8.2435 2.2517,-2.2516 5.1204,-3.785 8.2435,-4.4062 3.1231,-0.6213 6.3603,-0.3024 9.3021,0.9161 2.9419,1.2186 5.4564,3.2822 7.2255,5.9298 1.7691,2.6477 2.7133,5.7604 2.7133,8.9447 0,4.27 -1.6962,8.3651 -4.7155,11.3844 -3.0194,3.0194 -7.1145,4.7156 -11.3845,4.7156 z m 0,-29.9 c -2.7293,0 -5.3974,0.8094 -7.6668,2.3257 -2.2694,1.5164 -4.0382,3.6717 -5.0827,6.1933 -1.0445,2.5216 -1.3178,5.2963 -0.7853,7.9733 0.5325,2.6769 1.8468,5.1358 3.7768,7.0658 1.9299,1.9299 4.3889,3.2443 7.0658,3.7767 2.6769,0.5325 5.4517,0.2592 7.9733,-0.7853 2.5216,-1.0444 4.6769,-2.8132 6.1932,-5.0826 1.5164,-2.2694 2.3257,-4.9375 2.3257,-7.6669 0.0091,-1.818 -0.3411,-3.62 -1.0305,-5.3022 -0.6895,-1.6823 -1.7045,-3.2117 -2.9869,-4.5005 -1.2824,-1.2888 -2.8067,-2.3114 -4.4855,-3.0093 -1.6788,-0.6978 -3.479,-1.057 -5.2971,-1.057 z m 0,2.3 c -2.2744,0 -4.4978,0.6745 -6.389,1.9381 -1.8912,1.2636 -3.3652,3.0597 -4.2356,5.1611 -0.8704,2.1013 -1.0981,4.4136 -0.6544,6.6443 0.4437,2.2308 1.539,4.2799 3.1473,5.8882 1.6083,1.6083 3.6574,2.7036 5.8882,3.1473 2.2308,0.4438 4.5431,0.216 6.6444,-0.6544 2.1014,-0.8704 3.8974,-2.3444 5.161,-4.2355 1.2637,-1.8912 1.9381,-4.1146 1.9381,-6.3891 0.0031,-1.5121 -0.2922,-3.01 -0.8687,-4.4079 C 53.5687,28.533 52.7221,27.2625 51.6539,26.1922 50.5857,25.1219 49.317,24.2728 47.9202,23.6934 46.5235,23.114 45.0262,22.8158 43.514,22.8158 Z m 5.428,19.09 -5.428,-3.956 -5.428,3.933 2.07,-6.371 -5.428,-3.956 h 6.716 l 2.07,-6.394 2.07,6.394 H 52.3 l -5.428,3.956 z"
     id="path4530"
     inkscape:connector-curvature="0"
     style="fill:#4f4545" />
  <path
     d="m 87.0316,26.588 h -2.3 V 22.471 L 43.516,2.553 2.3,22.471 v 4.117 H 0 V 21.045 L 43.516,0 87.0316,21.045 Z M 43.516,9.683 l 29.21,14.49 1.012,-2.07 -30.222,-14.973 -30.59,14.973 1.012,2.07 z m -26.45,28.405 h -2.3 v 23 h 2.3 z m -6.9,23 h -2.3 v -23 h 2.3 z m 11.5,9.2001 H 3.266 V 63.388 h 18.4 z m -16.1,-2.3 h 13.8 V 65.688 H 5.566 Z M 79.1656,61.088 h -2.3 v -23 h 2.3 z m -6.8996,0 h -2.3 v -23 h 2.3 z m 11.4996,9.2001 H 65.366 V 63.388 h 18.3996 z m -16.0996,-2.3 H 81.4656 V 65.688 H 67.666 Z M 48.116,61.088 h -2.3 v -6.9 h 2.3 z m -6.9,0 h -2.3 v -6.9 h 2.3 z m 11.5,9.2001 h -18.4 V 63.388 h 18.4 z m -16.1,-2.3 h 13.8 V 65.688 h -13.8 z M 83.7656,35.788 H 65.366 v -6.9 h 18.3996 z m -16.0996,-2.3 h 13.7996 v -2.3 H 67.666 Z m -46,2.3 h -18.4 v -6.9 h 18.4 z m -16.1,-2.3 h 13.8 v -2.3 h -13.8 z"
     id="path4532"
     inkscape:connector-curvature="0"
     style="fill:#4f4545" />
</svg>
