<?xml version="1.0" encoding="UTF-8"?>
<svg id="Layer_2" data-name="Layer 2" xmlns="http://www.w3.org/2000/svg" xmlns:xlink="http://www.w3.org/1999/xlink" viewBox="0 0 93.44 85">
  <defs>
    <style>
      .cls-1 {
        fill: #4f4545;
      }

      .cls-2 {
        clip-path: url(#clippath);
      }

      .cls-3 {
        fill: #f36a20;
      }

      .cls-4 {
        fill: none;
      }
    </style>
    <clipPath id="clippath">
      <rect class="cls-4" x="3.31" y="3.37" width="86.83" height="78.39"/>
    </clipPath>
  </defs>
  <g class="cls-2">
    <path class="cls-1" d="M80.98,3.37H24.83c-4.87,0-8.84,3.93-8.84,8.74l-.36,49.44H4.67c-.78,0-1.37,.69-1.37,1.46v6.8c0,6.37,5.1,11.58,11.25,11.86v.08H61.84v-.09c.35,.01,.56,.09,.81,.09h.03c6.56-.04,11.85-5.39,11.82-11.95V26.57h14.27c.78,0,1.37-.7,1.37-1.48V12.61c0-5.07-4.08-9.2-9.16-9.24h0ZM15.17,78.95h0c-5,0-9.04-4.13-9.04-9.14v-5.45H50.76v5.43c-.01,3.17,1.24,6.2,3.47,8.44,.24,.24,.49,.36,.74,.71H15.17Zm56.51-9.14c0,5-4,9.14-9.01,9.14h-.03c-5.03-.04-9.08-4.13-9.07-9.16v-6.78c0-.79-.62-1.44-1.41-1.46H18.44l.36-49.43c0-3.27,2.7-5.94,6.02-5.94h49.51c-1.6,1.76-2.66,3.98-2.66,6.46v57.17Zm15.64-57.18v11.13h-12.83V12.64c0-3.52,2.93-6.46,6.45-6.46h.04c3.53,.03,6.36,2.91,6.35,6.44h0Zm0,.01"/>
  </g>
  <path class="cls-3" d="M46.7,52.45c-11.05,.88-20.24-8.31-19.36-19.36,.69-8.69,7.74-15.74,16.43-16.43,11.05-.88,20.24,8.31,19.36,19.36-.69,8.69-7.74,15.74-16.43,16.43Zm.07-32.82c-9.47-.95-17.4,6.98-16.46,16.46,.7,7.01,6.37,12.69,13.39,13.39,9.48,.95,17.41-6.98,16.46-16.46-.7-7.01-6.37-12.69-13.39-13.39Z"/>
  <path class="cls-3" d="M44.59,25.83c1.13,0,2.13,.19,3.01,.56,.88,.37,1.57,.89,2.06,1.56,.49,.66,.73,1.42,.73,2.27s-.24,1.64-.71,2.27c-.47,.63-1.14,1.31-2.01,2.04-.58,.5-1.01,.91-1.3,1.22-.28,.32-.47,.66-.55,1.02l-.17,1.02h-1.1c-.85,0-1.54-.69-1.54-1.54h0c0-.78,.15-1.42,.44-1.93s.7-1.06,1.23-1.66c.38-.4,.67-.74,.85-1.02,.18-.28,.27-.61,.27-.97,0-.81-.54-1.22-1.62-1.22-.55,0-1.13,.09-1.75,.26-.04,0-.07,.02-.11,.03-.84,.25-1.69-.34-1.69-1.22h0c0-1.14,.76-2.15,1.87-2.44,.64-.17,1.33-.25,2.07-.25Zm-.31,13.33h.18c1.26,0,2.27,1.02,2.27,2.27v.09c0,1.25-1.01,2.27-2.27,2.27h-.09c-1.29,0-2.33-1.04-2.33-2.33v-.08c0-1.23,1-2.23,2.23-2.23Z"/>
</svg>