<svg xmlns="http://www.w3.org/2000/svg" viewBox="0 0 158.65 25.57"><defs><style>.a{fill:#20964f}</style></defs><path class="a" d="M47.72 11.91a3.48 3.48 0 013.14 3.62c0 1.41-.5 4.22-5.32 4.22h-6.29V4.98h6.28c2.49 0 4.76.87 4.76 3.64a3.37 3.37 0 01-2.58 3.33zm-7 6.67h4.87c2.1 0 3.91-.69 3.91-3.06 0-1.89-1.43-2.87-3.91-2.87h-4.92v5.93zm4.87-12.43h-4.92v5.3h4.87c2.27 0 3.35-1.12 3.35-2.51 0-1.85-1.14-2.79-3.35-2.79zm15.39 13.64c-1.33 0-1.54-.75-1.54-1.87a4.09 4.09 0 01-3.97 2.18c-2 0-3.6-1-3.6-3.14 0-3 2.93-3.12 5.76-3.45 1.08-.12 1.68-.27 1.68-1.45 0-1.77-1.27-2.2-2.81-2.2s-2.83.75-2.87 2.49h-1.28c.13-2.52 1.89-3.6 4.35-3.6 1.89 0 4 .58 4 3.45v5.7a.7.7 0 00.77.79 1.24 1.24 0 00.42-.08v1.1a3.7 3.7 0 01-.85.08zm-1.64-5.86a1.64 1.64 0 01-1.1.48c-2.22.39-5 .38-5 2.47a2.23 2.23 0 002.36 2.1 3.45 3.45 0 003.74-3.37v-1.68zm11.26 5.86v-6.7c0-1.85-.6-3.24-2.72-3.24s-3.34 1.58-3.41 3.68v6.26h-1.28V9.06h1.28v1.85a3.64 3.64 0 013.43-2.16c3 0 3.93 1.58 3.93 4.14v6.9h-1.24zm12.67 0h-1.64l-4.25-5.81-2.12 1.77v4.08h-1.31V4.98h1.31v9.31l5.95-5.2h1.75l-4.58 4 4.89 6.76zm.9 0V9.06h1.3v10.73h-1.31zm0-14.84h1.3v2.1h-1.31V4.98zm11 14.84v-6.7c0-1.85-.6-3.24-2.72-3.24s-3.33 1.58-3.37 3.68v6.26h-1.31V9.06h1.31v1.85a3.64 3.64 0 013.43-2.16c3 0 3.93 1.58 3.93 4.14v6.9h-1.31zm7.66 4.28c-2.14 0-4.26-1-4.45-3.24h1.31c.29 1.58 1.69 2.14 3.14 2.14 2.41 0 3.45-1.44 3.45-4.05v-1.46a3.72 3.72 0 01-3.41 2.2c-3.43 0-4.85-2.45-4.85-5.51s1.75-5.4 4.85-5.4a3.78 3.78 0 013.41 2.16V9.06h1.31v9.86c0 3.2-1.25 5.16-4.76 5.16zm0-14.22c-2.49 0-3.54 2.22-3.54 4.45s1.12 4.26 3.54 4.26 3.45-2.08 3.45-4.26-1-4.45-3.45-4.45zm15.64 2.75c1.93.25 2.49 1.58 2.6 3.35.06 1 .06 3.06.69 3.8h-1.56a5.86 5.86 0 01-.39-2.31c-.12-2.08-.29-4.39-3-4.28h-5.34v6.59h-1.41V4.98h6.8c2.46 0 4.51 1.18 4.51 3.87a3.57 3.57 0 01-2.9 3.75zm-1.73-6.45h-5.27v5.83h5.28a3 3 0 003.2-2.89c0-1.81-1.08-3-3.2-3zm15 13.64c-1.33 0-1.54-.75-1.54-1.87a4.09 4.09 0 01-3.91 2.18c-2 0-3.6-1-3.6-3.14 0-3 2.93-3.12 5.76-3.45 1.08-.12 1.69-.27 1.69-1.45 0-1.77-1.27-2.2-2.81-2.2s-2.83.75-2.87 2.49h-1.31c.13-2.52 1.89-3.6 4.34-3.6 1.89 0 4 .58 4 3.45v5.7a.7.7 0 00.77.79 1.25 1.25 0 00.42-.08v1.1a3.7 3.7 0 01-.85.08zm-1.64-5.86a1.64 1.64 0 01-1.1.48c-2.22.39-5 .38-5 2.47a2.23 2.23 0 002.37 2.1 3.45 3.45 0 003.74-3.37v-1.68zm7 4.89a10.28 10.28 0 001.12-.06v1.12h-1.16c-1.75 0-2.35-.58-2.33-2.41v-7.31h-1.87v-1.1h1.87V5.84h1.31v3.22h2.18v1.1h-2.15v7.24c0 .85.13 1.35 1.06 1.41zm11.7-4h-8.23c0 1.91 1 4.22 3.53 4.22a3.27 3.27 0 003.37-2.78h1.31c-.56 2.43-2 3.85-4.68 3.85-3.41 0-4.84-2.62-4.84-5.68 0-2.83 1.43-5.68 4.84-5.68s4.82 3 4.72 6zm-4.72-4.93c-2.14 0-3.33 1.87-3.53 3.83h6.92c-.06-2-1.29-3.83-3.41-3.83zm10.05 0c-1.16 0-2.54.46-2.54 1.85 0 1.16 1.33 1.58 2.23 1.81l1.74.4c1.5.23 3.06 1.1 3.06 3 0 2.33-2.31 3.22-4.3 3.22-2.5 0-4.2-1.16-4.41-3.78h1.31c.1 1.77 1.41 2.68 3.16 2.68 1.23 0 2.93-.54 2.93-2 0-1.25-1.16-1.66-2.35-2l-1.68-.37c-1.71-.46-3-1-3-2.87 0-2.18 2.14-3 4-3 2.14 0 3.85 1.12 3.93 3.45h-1.31c-.06-1.62-1.31-2.35-2.81-2.35zM36.12 25.56H0V-.02h36.12v25.58zm-25.5-13.32v1.2h5.05c.06 3.14-1.85 5.45-5.13 5.45-3.93 0-5.59-3.29-5.59-6.53s1.66-6.53 5.59-6.53a4.63 4.63 0 014.78 3.72h1.41c-.54-3.24-3.08-4.93-6.2-4.93-4.68 0-7 3.68-7 7.73s2.33 7.73 7 7.73a5.36 5.36 0 005.13-3l.19 2.7h1v-7.54h-6.3zm14.95 7.86c4.66 0 7-3.68 7-7.73s-2.33-7.73-7-7.73-7 3.68-7 7.73 2.33 7.73 7 7.73zm0-14.26c3.91 0 5.57 3.29 5.57 6.53s-1.67 6.53-5.58 6.53-5.59-3.29-5.59-6.53 1.66-6.53 5.59-6.53z"/></svg>