<?xml version="1.0" encoding="utf-8"?>
<!-- Generator: Adobe Illustrator 25.2.1, SVG Export Plug-In . SVG Version: 6.00 Build 0)  -->
<svg version="1.1" id="Layer_1" xmlns="http://www.w3.org/2000/svg" xmlns:xlink="http://www.w3.org/1999/xlink" x="0px" y="0px"
	 viewBox="0 0 231.5 260.3" style="enable-background:new 0 0 231.5 260.3;" xml:space="preserve">
<style type="text/css">
	.st0{fill:#4F4545;}
	.st1{fill:#ED6A22;}
</style>
<g>
	<path class="st0" d="M73.6,117.6c0,26.7,21.6,48.3,48.3,48.3s48.3-21.6,48.3-48.3s-21.6-48.3-48.3-48.3c0,0,0,0,0,0
		C95.2,69.3,73.6,90.9,73.6,117.6z M121.9,75.9c23,0,41.6,18.6,41.6,41.6s-18.6,41.6-41.6,41.7s-41.6-18.6-41.7-41.6c0,0,0,0,0,0
		C80.2,94.6,98.9,76,121.9,75.9z"/>
	<path class="st0" d="M186.6,174.1l-26.1,12.3c-3.6-6.7-10.5-11-18.1-11.2l-24.1-0.7c-3.8-0.1-7.6-1.1-11-2.8l-2.4-1.3
		c-12.5-6.5-27.5-6.5-40,0l0.2-5.6c0-1.8-1.4-3.3-3.2-3.4l-26.4-0.7c-1.8-0.1-3.4,1.4-3.4,3.2c0,0,0,0,0,0l-1.6,58
		c-0.1,1.8,1.4,3.4,3.2,3.4l26.4,0.7h0.1c1.8,0,3.3-1.4,3.3-3.2l0.1-2.8l6.9-3.7c2.7-1.5,5.8-1.8,8.8-1l41,11.5h0.2
		c3,0.6,6,0.9,9,0.9c6.4,0,12.7-1.3,18.6-4c0.1-0.1,0.3-0.1,0.4-0.2l59.4-38.4c1.5-1,2-2.9,1.1-4.4
		C204.4,173,194.6,170.1,186.6,174.1L186.6,174.1z M37.1,218.9l1.4-51.3l19.8,0.5l-1.4,51.3L37.1,218.9z M144.9,218
		c-7.2,3.3-15.3,4.2-23.1,2.6l-40.9-11.5c-4.6-1.3-9.5-0.8-13.7,1.5l-3.5,1.9l0.9-34.1c11.1-7.4,25.4-8.2,37.2-2l2.4,1.3
		c4.3,2.2,9,3.4,13.8,3.6l24.1,0.7c6.8,0.2,12.5,5,13.9,11.6l-35.9-1c-1.8,0-3.4,1.4-3.4,3.2c0,1.8,1.4,3.4,3.2,3.4l39.6,1.1h0.1
		c1.8,0,3.3-1.4,3.3-3.2c0-1.4-0.1-2.9-0.3-4.3l26.8-12.6h0.1c3.8-1.9,8.4-1.3,11.5,1.6L144.9,218z"/>
	<path class="st0" d="M125.2,59.9V28.3c-0.1-1.8-1.7-3.3-3.5-3.2c-1.7,0.1-3.1,1.5-3.2,3.2v31.6c0.1,1.8,1.7,3.3,3.5,3.2
		C123.7,63,125.1,61.6,125.2,59.9z"/>
	<path class="st0" d="M150.2,59.9v-15c0.1-1.8-1.3-3.4-3.2-3.5c-1.8-0.1-3.4,1.3-3.5,3.2c0,0.1,0,0.2,0,0.4v15
		c0.1,1.8,1.7,3.3,3.5,3.2C148.7,63,150.1,61.6,150.2,59.9z"/>
	<path class="st0" d="M100.2,59.9v-15c0-1.8-1.5-3.3-3.3-3.3s-3.3,1.5-3.3,3.3v15c0,1.8,1.5,3.3,3.3,3.3S100.2,61.8,100.2,59.9
		L100.2,59.9z"/>
	<path class="st1" d="M125.6,114.9V99.5c3.7,0.4,7,1.8,9.5,3.8l0.2,0.2l2.7-5.2l0.1-0.2L138,98c-3.8-2.8-7.7-4.2-12.4-4.6v-6.9h-5.4
		v7c-8.4,1-13.1,5.8-13.1,13.2c0,8.6,6.2,11.2,13.1,13.2v15.9c-3.8-0.4-7.5-1.8-11.8-4.6l-0.2-0.1l-3.3,5.1l0.2,0.1
		c5.4,3.7,9.6,5.3,15,5.5v6.7h5.4v-6.9c8.3-1.2,13.1-6.1,13.1-13.6C138.7,119.8,132.5,117.1,125.6,114.9 M132.2,128.9
		c0,3.7-2.4,6.1-6.6,6.9v-14.1C129.1,122.9,132.2,124.6,132.2,128.9 M113.5,105.9c0-3.6,2.3-5.7,6.7-6.4v13.6
		C116.7,111.8,113.5,110,113.5,105.9"/>
</g>
</svg>
