<?xml version="1.0" encoding="UTF-8"?>
<svg width="83px" height="33px" viewBox="0 0 83 33" version="1.1" xmlns="http://www.w3.org/2000/svg" xmlns:xlink="http://www.w3.org/1999/xlink">
    <!-- Generator: Sketch 57.1 (83088) - https://sketch.com -->
    <title>Group 64</title>
    <desc>Created with Sketch.</desc>
    <defs>
        <polygon id="path-1" points="0 33 82.455 33 82.455 0.433 0 0.433"></polygon>
    </defs>
    <g id="Bask" stroke="none" stroke-width="1" fill="none" fill-rule="evenodd">
        <g id="Landing_Desktop" transform="translate(-225.000000, -2524.000000)">
            <g id="1.4-secure-your-money" transform="translate(105.000000, 2290.000000)">
                <g id="Group-4" transform="translate(0.000000, 233.000000)">
                    <g id="Group-64" transform="translate(120.000000, 0.000000)">
                        <polygon id="Fill-1" fill="#003366" points="0 1.1354 0 33.5144 8.797 33.5144 8.797 23.3054 17.557 23.3054 17.557 14.8394 8.797 14.8394 8.797 9.5994 18.094 9.5994 18.094 1.1354"></polygon>
                        <g id="Group-63" transform="translate(0.000000, 0.566900)">
                            <path d="M46.9829,16.7419 C46.9829,1.9109 33.6799,0.5679 28.1719,0.5679 L19.3049,0.5679 L19.3049,32.9179 L28.1719,32.9179 L28.1579,24.4839 L28.1579,8.8979 C33.6129,8.8979 38.2489,10.9129 38.2489,16.6909 C38.2489,22.4679 33.6129,24.4819 28.1579,24.4819 L28.1719,32.9169 C35.0249,32.9179 46.9829,31.6049 46.9829,16.7419" id="Fill-2" fill="#003366"></path>
                            <mask id="mask-2" fill="white">
                                <use xlink:href="#path-1"></use>
                            </mask>
                            <g id="Clip-5"></g>
                            <polygon id="Fill-4" fill="#003366" mask="url(#mask-2)" points="48.505 32.947 57.301 32.947 57.301 0.5 48.505 0.5"></polygon>
                            <path d="M75.2612,24.3825 C71.0352,24.3825 67.5382,20.9395 67.5382,16.7175 C67.5382,12.4945 71.0352,9.0505 75.2612,9.0505 C79.1142,9.0505 81.1282,11.0995 82.4552,13.7985 L82.4552,2.1805 C82.4552,2.1805 78.5602,0.4335 74.9302,0.4335 C66.8692,0.4335 58.1352,7.8485 58.1352,16.7175 C58.1352,27.5745 66.4662,32.9995 74.9302,32.9995 C78.5592,32.9995 82.4552,31.2555 82.4552,31.2555 L82.4552,19.7375 C80.8672,22.4755 79.0932,24.3825 75.2612,24.3825" id="Fill-6" fill="#003366" mask="url(#mask-2)"></path>
                            <path d="M75.4043,12.1032 C77.9603,12.1032 80.0323,14.1742 80.0323,16.7312 C80.0323,19.2872 77.9603,21.3582 75.4043,21.3582 C72.8483,21.3582 70.7763,19.2872 70.7763,16.7312 C70.7763,14.1742 72.8483,12.1032 75.4043,12.1032 Z" id="Stroke-7" stroke="#003366" stroke-width="0.029" mask="url(#mask-2)"></path>
                            <path d="M75.3623,10.0642 C79.0533,10.0642 82.0453,13.0562 82.0453,16.7482 C82.0453,20.4382 79.0533,23.4302 75.3623,23.4302 C71.6713,23.4302 68.6793,20.4382 68.6793,16.7482 C68.6793,13.0562 71.6713,10.0642 75.3623,10.0642 Z" id="Stroke-8" stroke="#003366" stroke-width="0.029" mask="url(#mask-2)"></path>
                            <polygon id="Fill-9" fill="#003366" mask="url(#mask-2)" points="73.8408 12.9343 73.8408 13.8113 73.6488 13.8113 73.6488 13.1413 73.5758 13.1413 73.6638 12.9343"></polygon>
                            <path d="M74.2808,13.2058 C74.2808,13.3858 74.4478,13.5328 74.6538,13.5328 C74.7378,13.5328 74.8138,13.5098 74.8778,13.4688 C74.7618,13.7628 74.4548,13.6428 74.3898,13.6208 L74.3088,13.7798 C74.4088,13.8818 75.0788,13.9468 75.0788,13.3068 C75.0788,13.2338 75.0248,12.8788 74.6538,12.8788 L74.6538,13.0358 C74.7608,13.0358 74.8668,13.1108 74.8668,13.2058 C74.8668,13.2998 74.7598,13.3738 74.6538,13.3738 C74.5478,13.3738 74.4598,13.2998 74.4598,13.2058 C74.4598,13.1108 74.5478,13.0358 74.6538,13.0358 L74.6538,12.8788 C74.4478,12.8778 74.2808,13.0238 74.2808,13.2058" id="Fill-10" fill="#003366" mask="url(#mask-2)"></path>
                            <path d="M75.6621,13.8513 C75.4631,13.8513 75.3481,13.7643 75.3151,13.7233 L75.4301,13.6093 C75.4821,13.6393 75.5741,13.6963 75.6371,13.6963 C75.7001,13.6963 75.8171,13.6683 75.8171,13.5703 C75.8171,13.5203 75.7731,13.4403 75.5861,13.4643 L75.5861,13.3123 C75.7811,13.3293 75.8281,13.2593 75.8281,13.1953 C75.8281,13.1303 75.7571,13.0783 75.6691,13.0783 C75.6011,13.0783 75.5341,13.1183 75.4761,13.1823 L75.3491,13.0533 C75.4061,12.9643 75.5231,12.9053 75.6611,12.9053 C75.8541,12.9053 75.9981,13.0243 75.9981,13.1723 C75.9981,13.2493 75.9651,13.3213 75.8951,13.3713 C75.9711,13.4143 76.0021,13.5093 76.0021,13.5703 C76.0041,13.7163 75.8741,13.8513 75.6621,13.8513" id="Fill-11" fill="#003366" mask="url(#mask-2)"></path>
                            <path d="M76.6108,13.8513 C76.4118,13.8513 76.2968,13.7643 76.2648,13.7233 L76.3808,13.6093 C76.4318,13.6393 76.5238,13.6963 76.5868,13.6963 C76.6498,13.6963 76.7668,13.6683 76.7668,13.5703 C76.7668,13.5203 76.7238,13.4403 76.5368,13.4643 L76.5368,13.3123 C76.7298,13.3293 76.7778,13.2593 76.7778,13.1953 C76.7778,13.1303 76.7078,13.0783 76.6198,13.0783 C76.5518,13.0783 76.4848,13.1183 76.4278,13.1823 L76.2988,13.0533 C76.3558,12.9643 76.4748,12.9053 76.6108,12.9053 C76.8048,12.9053 76.9488,13.0243 76.9488,13.1723 C76.9488,13.2493 76.9178,13.3213 76.8468,13.3713 C76.9208,13.4143 76.9538,13.5093 76.9538,13.5703 C76.9538,13.7163 76.8228,13.8513 76.6108,13.8513" id="Fill-12" fill="#003366" mask="url(#mask-2)"></path>
                            <path d="M73.8247,19.5495 L73.8247,19.0665 L73.7307,19.0665 L73.7307,19.6435 L74.0447,19.6435 L74.0447,19.4205 L74.1997,19.4205 L74.1997,19.6435 L74.5117,19.6435 L74.5117,19.0665 L74.6567,19.0665 C74.8277,19.0665 74.8277,19.1545 74.9417,19.1545 C75.0277,19.1545 75.0567,19.0665 75.1187,19.0665 C75.1797,19.0665 75.1997,19.1755 75.2807,19.1755 C75.3597,19.1755 75.3797,19.0665 75.4407,19.0665 C75.5027,19.0665 75.5317,19.1545 75.6177,19.1545 C75.7317,19.1545 75.7647,19.0665 75.9367,19.0665 C76.0327,19.0665 76.0897,19.1095 76.0897,19.2205 C76.0897,19.4095 76.2437,19.5625 76.4327,19.5625 C76.6227,19.5625 76.7757,19.4085 76.7757,19.2205 L76.7757,18.7275 C76.7757,18.5375 76.6217,18.3865 76.4327,18.3865 L76.4347,18.5045 C76.5457,18.5045 76.6377,18.5955 76.6377,18.7085 C76.6377,18.8895 76.5637,18.9725 76.5637,18.9725 C76.5637,18.9725 76.6377,19.0555 76.6377,19.2375 C76.6377,19.3495 76.5457,19.4435 76.4347,19.4435 C76.3227,19.4435 76.2297,19.3495 76.2297,19.2375 C76.2297,19.0555 76.3057,18.9725 76.3057,18.9725 C76.3057,18.9725 76.2297,18.8895 76.2297,18.7085 C76.2297,18.5955 76.3227,18.5045 76.4347,18.5045 L76.4337,18.3865 C76.2447,18.3865 76.0907,18.5385 76.0907,18.7275 C76.0907,18.8375 76.0337,18.8815 75.9377,18.8815 C75.7657,18.8815 75.7337,18.7915 75.6187,18.7915 C75.5327,18.7915 75.5047,18.8755 75.4427,18.8755 C75.3797,18.8755 75.3617,18.7695 75.2817,18.7695 C75.1997,18.7695 75.1797,18.8755 75.1197,18.8755 C75.0577,18.8755 75.0287,18.7915 74.9427,18.7915 C74.8297,18.7915 74.8297,18.8815 74.6577,18.8815 L73.5857,18.8815 L73.5857,19.0665 L73.7327,19.0665 L73.8257,19.0665 L74.4197,19.0665 L74.4197,19.5495 L74.2957,19.5495 L74.2957,19.3255 L73.9507,19.3255 L73.9507,19.5495 L73.8247,19.5495 Z" id="Fill-13" fill="#003366" mask="url(#mask-2)"></path>
                            <path d="M74.1323,10.738 L74.6613,11.647 C74.5853,11.654 74.5053,11.67 74.4263,11.687 L74.3313,11.523 L74.0403,11.589 L74.0603,11.362 L74.2163,11.327 L74.0833,11.094 L74.0603,11.362 L74.0403,11.589 L74.0263,11.778 C73.9483,11.795 73.8693,11.817 73.7963,11.842 L73.8823,10.796 L74.1323,10.738 Z" id="Fill-14" fill="#003366" mask="url(#mask-2)"></path>
                            <path d="M79.6392,12.5114 L79.3412,12.7744 C79.3062,12.8064 79.2992,12.8634 79.3332,12.9014 L79.5522,13.1524 L79.4202,13.2644 L79.1422,12.9484 L78.9852,13.0864 L79.3262,13.4744 C79.3682,13.5214 79.4412,13.5254 79.4902,13.4844 L79.7852,13.2324 C79.8242,13.1984 79.8282,13.1414 79.7962,13.1044 L79.5732,12.8514 L79.7032,12.7394 L79.9872,13.0614 L80.1522,12.9224 L79.8002,12.5234 C79.7592,12.4754 79.6872,12.4694 79.6392,12.5114" id="Fill-15" fill="#003366" mask="url(#mask-2)"></path>
                            <path d="M70.7397,14.4812 C70.7117,14.5432 70.6797,14.6042 70.6517,14.6692 L69.7677,14.2322 L70.0457,13.6722 L70.2377,13.7722 L70.0557,14.1372 L70.2077,14.2132 L70.3627,13.9002 L70.5557,14.0002 L70.4017,14.3112 L70.7397,14.4812 Z" id="Fill-16" fill="#003366" mask="url(#mask-2)"></path>
                            <path d="M79.3687,12.1101 C79.4267,12.1581 79.4337,12.2411 79.3887,12.2971 L78.9277,12.8591 C78.8797,12.9161 78.7967,12.9241 78.7377,12.8771 C78.6547,12.8101 78.5797,12.7351 78.5597,12.7201 C78.5377,12.7021 78.4617,12.6451 78.3817,12.5861 C78.3237,12.5411 78.3167,12.4531 78.3617,12.3961 L78.8227,11.8361 C78.8677,11.7791 78.9537,11.7701 79.0117,11.8181 L78.9387,12.0301 L78.5807,12.4641 L78.8227,12.6611 L79.1777,12.2251 L78.9387,12.0301 L79.0117,11.8181 L79.3687,12.1101 Z" id="Fill-17" fill="#003366" mask="url(#mask-2)"></path>
                            <path d="M73.1689,11.6755 L72.9759,11.7615 L72.8889,11.5645 L73.0999,11.4695 C73.1269,11.4565 73.1379,11.4255 73.1269,11.4005 L73.0999,11.3395 C73.0879,11.3135 73.0569,11.3005 73.0309,11.3135 L72.8179,11.4095 L72.8889,11.5645 L72.9759,11.7615 L73.1309,12.1075 C73.0539,12.1435 72.9899,12.1735 72.9289,12.2055 L72.5239,11.3065 L73.1089,11.0435 C73.1559,11.0215 73.2109,11.0435 73.2329,11.0905 L73.3659,11.3875 C73.3839,11.4305 73.3649,11.4825 73.3219,11.5005 C73.3189,11.5025 73.3169,11.5055 73.3189,11.5085 C73.3199,11.5115 73.3239,11.5125 73.3259,11.5115 C73.3699,11.4915 73.4209,11.5115 73.4399,11.5555 C73.4669,11.6165 73.5479,11.7955 73.5529,11.8105 C73.5619,11.8285 73.5799,11.8795 73.6399,11.8725 L73.6459,11.8875 C73.5719,11.9145 73.4969,11.9465 73.4149,11.9805 C73.3859,11.9695 73.3659,11.9465 73.3509,11.9145 C73.3359,11.8865 73.2909,11.7605 73.2709,11.7145 C73.2549,11.6755 73.2089,11.6585 73.1689,11.6755" id="Fill-18" fill="#003366" mask="url(#mask-2)"></path>
                            <path d="M75.4697,11.6023 L75.4657,11.3883 L75.0667,11.4023 L75.0367,10.6283 L74.8277,10.6363 L74.8657,11.6223 C75.0767,11.6053 75.2727,11.5983 75.4697,11.6023" id="Fill-19" fill="#003366" mask="url(#mask-2)"></path>
                            <path d="M71.1958,13.3679 L71.3678,13.4959 C71.2468,13.6499 71.1318,13.8069 71.0148,13.9859 L70.2098,13.4139 L70.5708,12.9079 L70.7448,13.0359 L70.5078,13.3679 L70.6468,13.4669 L70.8488,13.1819 L71.0228,13.3089 L70.8208,13.5929 L70.9628,13.6949 L71.1958,13.3679 Z" id="Fill-20" fill="#003366" mask="url(#mask-2)"></path>
                            <path d="M71.502,13.3366 L70.798,12.6306 L70.894,12.5346 L71.099,12.6306 L71.493,13.0306 L71.714,12.8116 L71.315,12.4126 L71.099,12.6306 L70.894,12.5346 L71.222,12.2086 C71.274,12.1556 71.359,12.1566 71.412,12.2096 L71.921,12.7246 C71.974,12.7776 71.974,12.8616 71.92,12.9146 C71.845,12.9906 71.763,13.0596 71.742,13.0766 C71.727,13.0946 71.57,13.2636 71.502,13.3366" id="Fill-21" fill="#003366" mask="url(#mask-2)"></path>
                            <path d="M72.5864,12.1589 L72.7054,12.3379 C72.5394,12.4409 72.3774,12.5519 72.2054,12.6769 L71.6454,11.8659 L72.1554,11.5119 L72.2744,11.6919 L71.9404,11.9239 L72.0384,12.0649 L72.3244,11.8649 L72.4434,12.0469 L72.1584,12.2439 L72.2584,12.3879 L72.5864,12.1589 Z" id="Fill-22" fill="#003366" mask="url(#mask-2)"></path>
                            <path d="M75.9033,11.6237 L76.0763,10.6397 L76.2063,10.6627 L76.2483,10.8847 L76.1473,11.4367 L76.4533,11.4907 L76.5503,10.9377 L76.2483,10.8847 L76.2063,10.6627 L76.6643,10.7427 C76.7373,10.7567 76.7853,10.8247 76.7743,10.8977 L76.6443,11.6107 C76.6323,11.6857 76.5623,11.7337 76.4883,11.7207 C76.3843,11.7027 76.2823,11.6747 76.2543,11.6707 C76.2293,11.6667 76.0023,11.6367 75.9033,11.6237" id="Fill-23" fill="#003366" mask="url(#mask-2)"></path>
                            <path d="M77.5039,11.8366 L77.4259,12.0346 C77.2459,11.9566 77.0629,11.8866 76.8619,11.8206 L77.2049,10.8976 L77.7889,11.1116 L77.7119,11.3136 L77.3279,11.1736 L77.2679,11.3306 L77.5959,11.4516 L77.5169,11.6526 L77.1919,11.5316 L77.1289,11.6956 L77.5039,11.8366 Z" id="Fill-24" fill="#003366" mask="url(#mask-2)"></path>
                            <path d="M77.959,11.8679 L78.067,11.6749 L78.273,11.7919 C78.299,11.8059 78.333,11.7959 78.346,11.7699 L78.379,11.7119 C78.393,11.6859 78.383,11.6519 78.357,11.6389 L78.151,11.5229 L78.066,11.6749 L77.959,11.8679 L77.769,12.2009 C77.692,12.1609 77.629,12.1299 77.567,12.0969 L78.06,11.2209 L78.628,11.5419 C78.674,11.5659 78.69,11.6249 78.663,11.6709 L78.453,12.0439 C78.43,12.0849 78.376,12.1009 78.334,12.0769 L77.959,11.8679 Z" id="Fill-25" fill="#003366" mask="url(#mask-2)"></path>
                            <path d="M79.5562,13.7771 L80.3722,13.2271 L80.4872,13.4011 L79.6712,13.9501 C79.6522,13.9221 79.6342,13.8911 79.6132,13.8621 C79.5952,13.8331 79.5742,13.8041 79.5562,13.7771" id="Fill-26" fill="#003366" mask="url(#mask-2)"></path>
                            <path d="M80.6577,14.1306 L79.9697,14.4836 C79.9547,14.4496 79.9397,14.4196 79.9237,14.3886 C79.9067,14.3576 79.8917,14.3266 79.8747,14.2976 L80.5607,13.9456 L80.4637,13.7516 L80.6547,13.6546 L80.9437,14.2226 L80.7537,14.3186 L80.6577,14.1306 Z" id="Fill-27" fill="#003366" mask="url(#mask-2)"></path>
                            <polygon id="Fill-28" fill="#003366" mask="url(#mask-2)" points="69.8491 14.9919 69.8391 15.2569 70.0861 15.3569 69.8301 15.4299 69.8111 15.6939 69.6631 15.4739 69.4051 15.5379 69.5681 15.3279 69.4281 15.1049 69.6771 15.1939"></polygon>
                            <polygon id="Fill-29" fill="#003366" mask="url(#mask-2)" points="80.8608 14.9919 80.8698 15.2569 80.6228 15.3569 80.8788 15.4299 80.8968 15.6939 81.0468 15.4739 81.3038 15.5379 81.1418 15.3279 81.2808 15.1049 81.0318 15.1939"></polygon>
                            <path d="M73.0825,22.1345 L73.0585,22.1905 L72.7775,22.0635 L73.0095,21.5505 L73.2905,21.6795 L73.2655,21.7345 L73.4575,21.8225 L73.5175,21.6875 C73.5475,21.6215 73.5175,21.5415 73.4515,21.5105 C73.3555,21.4665 73.2545,21.4255 73.2305,21.4155 C73.2085,21.4055 73.1215,21.3655 73.0305,21.3205 C72.9655,21.2855 72.8835,21.3185 72.8535,21.3855 L72.5535,22.0435 C72.5235,22.1105 72.5525,22.1925 72.6195,22.2235 L73.0415,22.4145 C73.1085,22.4465 73.1885,22.4165 73.2195,22.3495 L73.2765,22.2245 L73.0825,22.1345 Z" id="Fill-30" fill="#003366" mask="url(#mask-2)"></path>
                            <path d="M70.2334,16.5212 L69.2514,16.4592 L69.2644,16.2502 L70.2484,16.3142 C70.2424,16.3482 70.2404,16.3842 70.2394,16.4202 C70.2374,16.4552 70.2354,16.4882 70.2334,16.5212" id="Fill-31" fill="#003366" mask="url(#mask-2)"></path>
                            <path d="M70.1973,17.7478 L69.8133,17.8498 C69.7643,17.8608 69.7353,17.9108 69.7483,17.9588 L69.8333,18.2818 L69.6633,18.3238 L69.5563,17.9148 L69.3533,17.9698 L69.4843,18.4698 C69.5023,18.5298 69.5653,18.5668 69.6273,18.5508 L70.0053,18.4578 C70.0543,18.4448 70.0853,18.3938 70.0713,18.3488 L69.9863,18.0228 L70.1513,17.9798 L70.2603,18.3948 L70.4703,18.3428 L70.3343,17.8298 C70.3213,17.7688 70.2593,17.7318 70.1973,17.7478" id="Fill-32" fill="#003366" mask="url(#mask-2)"></path>
                            <path d="M69.6963,17.4079 L70.2633,17.3509 C70.2673,17.3859 70.2703,17.4209 70.2733,17.4579 C70.2773,17.4919 70.2803,17.5259 70.2843,17.5589 L69.3053,17.6539 L69.2843,17.4469 L69.8633,17.0069 L69.2453,17.0229 L69.2403,16.8159 L70.2243,16.7879 C70.2243,16.8219 70.2263,16.8589 70.2273,16.8939 C70.2283,16.9289 70.2283,16.9629 70.2293,16.9979 L69.6963,17.4079 Z" id="Fill-33" fill="#003366" mask="url(#mask-2)"></path>
                            <path d="M69.8765,19.4245 C69.9055,19.4915 69.9855,19.5235 70.0525,19.4935 L70.8365,19.1555 L70.7525,18.9605 L70.0475,19.2695 L69.9245,18.9845 L70.6275,18.6805 L70.5435,18.4845 L69.7635,18.8225 C69.6955,18.8535 69.6595,18.9345 69.6925,19.0015 L69.8765,19.4245 Z" id="Fill-34" fill="#003366" mask="url(#mask-2)"></path>
                            <polygon id="Fill-35" fill="#003366" mask="url(#mask-2)" points="70.9019 20.9626 71.0709 20.8706 71.2729 20.7636 71.5099 20.6376 71.3859 20.8766 71.2729 20.7636 71.0709 20.8706 71.2839 21.0786 71.1919 21.2506 71.3619 21.4186 71.8379 20.4876 71.6549 20.3076 70.7319 20.7966"></polygon>
                            <path d="M71.3154,19.9021 C71.3454,19.9441 71.3354,20.0031 71.2924,20.0321 L71.0234,20.2161 C70.9844,20.2441 70.9294,20.2341 70.9034,20.1941 C70.9014,20.1911 70.8974,20.1911 70.8954,20.1931 C70.8934,20.1941 70.8904,20.1971 70.8934,20.1991 C70.9204,20.2381 70.9124,20.2941 70.8724,20.3201 C70.8144,20.3581 70.6544,20.4681 70.6384,20.4781 C70.6234,20.4901 70.5744,20.5171 70.5954,20.5731 L70.5864,20.5801 L70.4444,20.3751 C70.4504,20.3431 70.4724,20.3181 70.4994,20.2981 C70.5274,20.2781 70.6404,20.2121 70.6824,20.1831 C70.7174,20.1601 70.7274,20.1121 70.7044,20.0741 L70.5844,19.9001 L70.7614,19.7791 L70.8944,19.9701 C70.9104,19.9941 70.9424,20.0001 70.9674,19.9841 L71.0224,19.9481 C71.0444,19.9311 71.0514,19.8981 71.0354,19.8751 L70.9024,19.6831 L70.7614,19.7801 L70.5844,19.9011 L70.2694,20.1181 L70.1404,19.9341 L70.9524,19.3761 C71.0594,19.5481 71.1894,19.7491 71.3154,19.9021" id="Fill-36" fill="#003366" mask="url(#mask-2)"></path>
                            <path d="M74.1934,21.9714 L74.2504,21.7664 C74.0584,21.7194 73.8704,21.6674 73.6684,21.6004 L73.3924,22.5474 L73.9904,22.7214 L74.0474,22.5124 L73.6554,22.3994 L73.7024,22.2374 L74.0374,22.3334 L74.0954,22.1254 L73.7624,22.0304 L73.8104,21.8634 L74.1934,21.9714 Z" id="Fill-37" fill="#003366" mask="url(#mask-2)"></path>
                            <path d="M72.2896,21.5515 L72.6066,21.0755 C72.6356,21.0975 72.6656,21.1155 72.6946,21.1365 C72.7236,21.1555 72.7516,21.1745 72.7796,21.1945 L72.2326,22.0105 L72.0596,21.8935 L72.0836,21.1685 L71.7076,21.6575 L71.5426,21.5305 L72.1446,20.7505 C72.1706,20.7735 72.1996,20.7965 72.2256,20.8165 C72.2526,20.8385 72.2816,20.8575 72.3086,20.8785 L72.2896,21.5515 Z" id="Fill-38" fill="#003366" mask="url(#mask-2)"></path>
                            <path d="M75.9141,22.8503 C75.8401,22.8613 75.7731,22.8093 75.7621,22.7373 L75.6641,22.0173 C75.6541,21.9453 75.7051,21.8753 75.7781,21.8653 C75.8841,21.8503 75.9901,21.8453 76.0161,21.8423 C76.0421,21.8383 76.1371,21.8223 76.2351,21.8053 C76.3081,21.7893 76.3771,21.8453 76.3881,21.9183 L76.4881,22.6343 C76.4981,22.7083 76.4481,22.7773 76.3731,22.7883 L76.2661,22.5873 L76.1911,22.0313 L75.8841,22.0743 L75.9611,22.6303 L76.2661,22.5873 L76.3731,22.7863 L75.9141,22.8503 Z" id="Fill-39" fill="#003366" mask="url(#mask-2)"></path>
                            <path d="M78.062,21.1159 C78.108,21.0929 78.166,21.1089 78.191,21.1549 L78.392,21.5339 C78.414,21.5769 78.398,21.6309 78.356,21.6529 L77.977,21.8549 L77.874,21.6609 L78.083,21.5499 C78.107,21.5329 78.118,21.5039 78.105,21.4769 L78.074,21.4189 C78.06,21.3919 78.027,21.3829 78.002,21.3959 L77.792,21.5069 L77.875,21.6609 L77.978,21.8549 L78.162,22.1989 C78.087,22.2409 78.021,22.2689 77.962,22.3059 L77.489,21.4229 C77.62,21.3619 77.904,21.2139 78.062,21.1159" id="Fill-40" fill="#003366" mask="url(#mask-2)"></path>
                            <path d="M80.9355,19.2644 L80.2275,18.9584 L80.1405,19.1574 L79.9435,19.0714 C80.0295,18.9124 80.1345,18.6644 80.1965,18.4844 L80.3935,18.5704 L80.3095,18.7664 L81.0175,19.0734 L80.9355,19.2644 Z" id="Fill-41" fill="#003366" mask="url(#mask-2)"></path>
                            <path d="M75.3003,22.5993 L75.2983,22.6613 L74.9903,22.6473 L75.0103,22.0853 L75.3203,22.0983 L75.3183,22.1603 L75.5263,22.1663 L75.5313,22.0213 C75.5333,21.9463 75.4763,21.8833 75.4013,21.8803 C75.2963,21.8763 75.1903,21.8763 75.1623,21.8763 C75.1373,21.8753 75.0403,21.8733 74.9413,21.8643 C74.8673,21.8573 74.8043,21.9193 74.8003,21.9953 L74.7733,22.7173 C74.7713,22.7913 74.8283,22.8533 74.9023,22.8573 L75.3653,22.8743 C75.4403,22.8773 75.5023,22.8213 75.5043,22.7463 L75.5103,22.6083 L75.3003,22.5993 Z" id="Fill-42" fill="#003366" mask="url(#mask-2)"></path>
                            <path d="M77.1787,21.5476 C77.2277,21.5316 77.2817,21.5606 77.2957,21.6106 L77.3917,21.9216 C77.4077,21.9676 77.3807,22.0166 77.3357,22.0296 C77.3317,22.0306 77.3297,22.0346 77.3317,22.0376 C77.3317,22.0416 77.3357,22.0426 77.3387,22.0416 C77.3837,22.0266 77.4317,22.0526 77.4487,22.0986 C77.4657,22.1636 77.5237,22.3506 77.5297,22.3676 C77.5367,22.3866 77.5487,22.4396 77.6057,22.4386 L77.6107,22.4476 L77.3707,22.5216 C77.3437,22.5066 77.3247,22.4806 77.3157,22.4456 C77.3037,22.4136 77.2747,22.2846 77.2597,22.2366 C77.2457,22.1956 77.2017,22.1726 77.1607,22.1866 L76.9597,22.2486 L76.8957,22.0436 L77.1177,21.9746 C77.1447,21.9646 77.1607,21.9356 77.1527,21.9086 L77.1327,21.8466 C77.1227,21.8186 77.0947,21.8026 77.0667,21.8116 L76.8447,21.8806 L76.8957,22.0436 L76.9597,22.2486 L77.0737,22.6146 L76.8587,22.6806 L76.5667,21.7396 C76.7647,21.6866 76.9947,21.6226 77.1787,21.5476" id="Fill-43" fill="#003366" mask="url(#mask-2)"></path>
                            <path d="M78.9961,21.6853 C78.9381,21.7323 78.8541,21.7223 78.8091,21.6653 L78.3521,21.1003 C78.3041,21.0433 78.3121,20.9573 78.3711,20.9113 C78.4541,20.8443 78.5411,20.7853 78.5631,20.7683 C78.5841,20.7513 78.6561,20.6893 78.7281,20.6233 C78.7871,20.5713 78.8741,20.5833 78.9201,20.6413 L79.3761,21.2033 C79.4241,21.2603 79.4151,21.3443 79.3561,21.3923 L79.1621,21.2803 L78.8091,20.8403 L78.5671,21.0353 L78.9231,21.4733 L79.1631,21.2803 L79.3571,21.3923 L78.9961,21.6853 Z" id="Fill-44" fill="#003366" mask="url(#mask-2)"></path>
                            <path d="M79.4077,19.9128 C79.4417,19.8738 79.5007,19.8698 79.5387,19.9038 L79.7837,20.1188 C79.8187,20.1518 79.8217,20.2068 79.7897,20.2418 C79.7867,20.2448 79.7877,20.2488 79.7897,20.2498 C79.7927,20.2528 79.7967,20.2528 79.7987,20.2488 C79.8297,20.2148 79.8847,20.2098 79.9197,20.2418 C79.9707,20.2878 80.1167,20.4168 80.1297,20.4308 C80.1457,20.4418 80.1827,20.4808 80.2317,20.4488 L80.2407,20.4588 L80.0757,20.6428 C80.0457,20.6468 80.0137,20.6308 79.9887,20.6078 C79.9647,20.5858 79.8717,20.4938 79.8337,20.4588 C79.8017,20.4308 79.7517,20.4338 79.7237,20.4658 L79.5837,20.6238 L79.4217,20.4788 L79.5747,20.3048 C79.5957,20.2818 79.5947,20.2488 79.5717,20.2308 L79.5237,20.1858 C79.5017,20.1688 79.4677,20.1708 79.4487,20.1928 L79.2947,20.3668 L79.4207,20.4788 L79.5827,20.6238 L79.8687,20.8768 L79.7197,21.0448 L78.9837,20.3918 C79.1247,20.2448 79.2877,20.0708 79.4077,19.9128" id="Fill-45" fill="#003366" mask="url(#mask-2)"></path>
                            <polygon id="Fill-46" fill="#003366" mask="url(#mask-2)" points="80.4668 20.1667 80.3388 20.0207 80.1908 19.8487 80.0148 19.6447 80.2748 19.7107 80.1908 19.8487 80.3388 20.0207 80.4948 19.7687 80.6828 19.8187 80.8088 19.6167 79.7968 19.3587 79.6628 19.5757 80.3418 20.3687"></polygon>
                            <path d="M80.313,18.1218 L81.257,18.4048 L81.196,18.6048 L80.252,18.3208 C80.264,18.2888 80.273,18.2558 80.284,18.2208 C80.296,18.1868 80.305,18.1538 80.313,18.1218" id="Fill-47" fill="#003366" mask="url(#mask-2)"></path>
                            <path d="M81.0649,16.4245 L80.4939,16.4455 C80.4939,16.4125 80.4919,16.3755 80.4909,16.3415 C80.4899,16.3065 80.4889,16.2735 80.4869,16.2375 L81.4719,16.2035 L81.4779,16.4125 L80.8749,16.8175 L81.4899,16.8365 L81.4849,17.0445 L80.4999,17.0135 C80.5019,16.9795 80.5029,16.9445 80.5039,16.9085 C80.5049,16.8725 80.5069,16.8395 80.5079,16.8045 L81.0649,16.4245 Z" id="Fill-48" fill="#003366" mask="url(#mask-2)"></path>
                            <path d="M81.3799,17.9489 C81.3669,18.0229 81.3009,18.0719 81.2259,18.0609 L80.5089,17.9509 C80.4359,17.9389 80.3849,17.8719 80.3969,17.7979 C80.4119,17.6929 80.4379,17.5899 80.4409,17.5619 C80.4439,17.5389 80.4569,17.4409 80.4649,17.3429 C80.4729,17.2689 80.5459,17.2199 80.6199,17.2299 L81.3339,17.3389 C81.4069,17.3489 81.4579,17.4179 81.4459,17.4919 L81.2249,17.5389 L80.6689,17.4519 L80.6239,17.7599 L81.1809,17.8419 L81.2249,17.5389 L81.4459,17.4919 L81.3799,17.9489 Z" id="Fill-49" fill="#003366" mask="url(#mask-2)"></path>
                            <path d="M73.9028,14.6843 L73.5528,16.0453 L73.6398,16.0453 L73.8878,15.0833 L73.8878,16.0453 L73.9838,16.0453 L73.9838,15.0833 L74.2318,16.0453 L73.5518,16.0453 C73.6068,16.2053 73.7938,16.2933 73.9318,16.2933 C74.0698,16.2933 74.2578,16.2053 74.3098,16.0453 L73.9608,14.6843 L73.9028,14.6843 Z" id="Fill-50" fill="#003366" mask="url(#mask-2)"></path>
                            <path d="M75.3525,14.0818 L75.5145,14.1548 L75.4985,14.1838 C75.4225,14.1838 75.4045,14.3298 75.4045,14.4028 C75.4045,14.4448 75.4455,14.5038 75.5195,14.5038 C75.5915,14.5038 75.7225,14.4368 75.9015,14.4368 C76.0805,14.4368 76.2685,14.5128 76.4625,14.5128 C76.6595,14.5128 76.7035,14.4578 76.7505,14.4578 C76.8005,14.4578 76.8985,14.4788 76.8985,14.5508 C76.8985,14.6208 76.8005,14.6418 76.7505,14.6418 C76.7025,14.6418 76.6585,14.5868 76.4625,14.5868 C76.2675,14.5868 76.0805,14.6628 75.9015,14.6628 C75.7225,14.6628 75.5915,14.5958 75.5195,14.5958 C75.4455,14.5958 75.4045,14.6538 75.4045,14.6958 C75.4045,14.7378 75.4945,14.8218 75.4945,14.8218 L75.3515,15.0388 L75.2105,14.8218 C75.2105,14.8218 75.2975,14.7378 75.2975,14.6958 C75.2975,14.6538 75.2575,14.5958 75.1855,14.5958 C75.1115,14.5958 74.9805,14.6628 74.8035,14.6628 C74.6235,14.6628 74.4355,14.5868 74.2405,14.5868 C74.0455,14.5868 73.9995,14.6418 73.9525,14.6418 C73.9015,14.6418 73.8035,14.6198 73.8035,14.5508 C73.8035,14.4798 73.9015,14.4578 73.9525,14.4578 C74.0005,14.4578 74.0455,14.5128 74.2405,14.5128 C74.4355,14.5128 74.6235,14.4368 74.8035,14.4368 C74.9805,14.4368 75.1115,14.5038 75.1855,14.5038 C75.2575,14.5038 75.2975,14.4448 75.2975,14.4028 C75.2975,14.3298 75.2825,14.1838 75.2045,14.1838 L75.1885,14.1548 L75.3525,14.0818 Z" id="Fill-51" fill="#003366" mask="url(#mask-2)"></path>
                            <path d="M76.8037,14.6843 L77.1537,16.0453 L77.0677,16.0453 L76.8197,15.0833 L76.8197,16.0453 L76.7237,16.0453 L76.7237,15.0833 L76.4747,16.0453 L77.1547,16.0453 C77.0987,16.2053 76.9127,16.2933 76.7757,16.2933 C76.6367,16.2933 76.4497,16.2053 76.3957,16.0453 L76.7467,14.6843 L76.8037,14.6843 Z" id="Fill-52" fill="#003366" mask="url(#mask-2)"></path>
                            <path d="M75.3516,15.6482 L78.2986,18.5312 C78.3116,18.5012 78.3036,18.4302 78.2866,18.3502 L75.3516,15.4762 L72.4166,18.3502 C72.3986,18.4302 72.3936,18.5012 72.4046,18.5312 L75.3516,15.6482 Z" id="Fill-53" fill="#003366" mask="url(#mask-2)"></path>
                            <polygon id="Fill-54" fill="#003366" mask="url(#mask-2)" points="75.3516 16.9441 77.7076 19.2511 77.7726 19.1451 75.3516 16.7741 72.9346 19.1451 72.9976 19.2511"></polygon>
                            <path d="M78.8315,14.7527 C78.9905,14.8167 79.2445,15.1047 79.0845,15.2637 C78.5005,15.0557 78.3185,15.5657 78.3185,15.8537 C78.3185,16.5177 78.8215,16.8577 78.8215,18.0387 C78.8215,18.4107 78.7245,19.8497 76.7645,20.3017 C76.4605,20.3727 75.7915,20.5497 75.3535,20.9577 L75.3535,20.8357 C75.8345,20.3897 76.7605,20.2317 76.9105,20.1857 C77.6435,19.9667 78.7435,19.3637 78.7435,18.0127 C78.7435,17.1817 78.4015,16.5297 78.0825,16.5297 C77.9485,16.5297 77.9905,16.6947 78.0665,16.8067 C78.1115,16.8717 78.1645,16.9817 78.0415,16.9577 C77.9195,16.9347 77.7575,16.9757 77.7575,17.0837 C77.7575,17.1377 77.8255,17.1377 77.8625,17.1157 C77.9005,17.0957 77.9485,17.0807 78.0165,17.0807 C78.1525,17.0807 78.2985,17.1657 78.2985,17.2637 C78.2985,17.3607 78.1115,17.3197 78.1115,17.3987 C78.1115,17.4507 78.5605,17.7697 78.5605,18.1427 C78.5605,18.2607 78.5105,18.2157 78.4825,18.1427 C78.4545,18.0697 78.3765,17.9727 78.3035,17.9727 C78.2305,17.9727 78.1895,18.0007 78.2225,18.0607 C78.2535,18.1227 78.3765,18.3107 78.3765,18.5697 C78.3765,18.8317 78.1845,19.1737 78.0585,19.3267 C77.9965,19.4037 77.9755,19.3567 77.9635,19.3267 C77.9525,19.2997 77.9235,19.2107 77.8615,19.2107 C77.7565,19.2107 77.8205,19.7147 76.6605,20.0237 C76.4285,20.0867 75.8415,20.2327 75.3525,20.6067 C74.8645,20.2337 74.2765,20.0867 74.0455,20.0237 C72.8835,19.7147 72.9485,19.2107 72.8435,19.2107 C72.7815,19.2107 72.7525,19.2997 72.7405,19.3267 C72.7285,19.3567 72.7095,19.4037 72.6455,19.3267 C72.5215,19.1737 72.3285,18.8317 72.3285,18.5697 C72.3285,18.3107 72.4495,18.1217 72.4835,18.0607 C72.5155,18.0007 72.4745,17.9727 72.4025,17.9727 C72.3285,17.9727 72.2505,18.0697 72.2235,18.1427 C72.1955,18.2157 72.1455,18.2607 72.1455,18.1427 C72.1455,17.7697 72.5935,17.4507 72.5935,17.3987 C72.5935,17.3197 72.4055,17.3607 72.4055,17.2637 C72.4055,17.1657 72.5525,17.0807 72.6865,17.0807 C72.7575,17.0807 72.8055,17.0967 72.8425,17.1157 C72.8785,17.1377 72.9475,17.1377 72.9475,17.0837 C72.9475,16.9747 72.7855,16.9337 72.6635,16.9577 C72.5395,16.9817 72.5935,16.8727 72.6395,16.8067 C72.7145,16.6957 72.7575,16.5297 72.6225,16.5297 C72.3045,16.5297 71.9625,17.1817 71.9625,18.0127 C71.9625,19.3637 73.0625,19.9667 73.7955,20.1857 C73.9455,20.2317 74.8705,20.3897 75.3515,20.8357 L75.3515,20.9577 C74.9125,20.5497 74.2415,20.3727 73.9365,20.3017 C71.9765,19.8487 71.8795,18.4097 71.8795,18.0387 C71.8795,16.8577 72.3825,16.5177 72.3825,15.8537 C72.3825,15.5667 72.1995,15.0557 71.6165,15.2637 C71.4585,15.1047 71.7125,14.8157 71.8715,14.7527 C71.8395,14.6087 72.3275,13.9807 73.1165,13.9807 C73.6255,13.9807 74.0245,14.2257 74.5685,14.2257 C74.7745,14.2257 75.1435,14.1307 75.3515,14.0037 L75.3515,14.1137 C75.1435,14.2417 74.7745,14.3377 74.5685,14.3377 C74.0245,14.3377 73.6255,14.0927 73.1165,14.0927 C72.7295,14.0927 72.4305,14.2457 72.2405,14.4037 C72.2685,14.4087 72.3655,14.4457 72.3765,14.4537 C72.4265,14.4887 72.4015,14.5427 72.3355,14.5187 C72.2935,14.5027 72.2385,14.4717 72.1765,14.4627 C72.1485,14.4907 72.1245,14.5187 72.1045,14.5437 C72.2295,14.5437 72.3085,14.5817 72.3615,14.6117 C72.4175,14.6427 72.4005,14.7077 72.3275,14.6747 C72.2635,14.6487 72.1835,14.6087 72.0475,14.6217 C72.0255,14.6577 72.0115,14.6887 72.0085,14.7127 L72.0385,14.8367 C71.9355,14.8367 71.6545,14.9347 71.7085,15.1077 C71.8025,15.0817 72.4655,15.0967 72.4655,15.7697 C72.4655,15.8827 72.5065,15.8717 72.5065,15.8347 C72.5715,15.5277 72.3645,15.1877 72.1075,15.0647 C72.0075,15.0177 72.0295,14.9317 72.1725,15.0087 C72.3095,15.0817 72.5875,15.2887 72.5875,15.6817 C72.5875,15.7707 72.5635,15.9537 72.5635,15.9537 C72.5635,15.9537 72.6665,15.8517 72.6665,15.5987 C72.6665,15.1807 72.3285,14.8377 72.0395,14.8377 L72.0095,14.7137 C72.1765,14.6907 72.7835,14.8507 72.7835,15.6707 C72.7835,15.8077 72.7025,16.2367 72.5605,16.4217 C72.7185,16.3977 73.0225,16.4037 72.7835,16.8277 C73.1335,16.8987 73.0465,17.2497 72.9355,17.2497 C72.7865,17.2497 72.7995,17.1697 72.6555,17.1697 C72.5505,17.1697 72.5425,17.2377 72.5995,17.2587 C72.6705,17.2827 72.7185,17.3227 72.7185,17.4007 C72.7185,17.5497 72.5035,17.4747 72.3155,17.9047 C72.3795,17.8847 72.4155,17.8747 72.4605,17.8747 C72.5035,17.8747 72.6075,17.8897 72.6075,17.9777 C72.6075,18.0657 72.4245,18.1977 72.4245,18.5567 C72.4245,18.7447 72.6165,19.0787 72.6635,19.1427 C72.7195,19.0867 72.7745,19.0477 72.8395,19.0477 C73.0625,19.0477 73.0305,19.2227 73.0305,19.2697 C73.0305,19.3177 73.2775,19.7487 73.9865,19.9247 C74.3335,20.0097 75.0905,20.2237 75.3535,20.4787 C75.6175,20.2237 76.3735,20.0097 76.7205,19.9247 C77.4295,19.7487 77.6755,19.3177 77.6755,19.2697 C77.6755,19.2227 77.6445,19.0477 77.8685,19.0477 C77.9325,19.0477 77.9875,19.0867 78.0435,19.1427 C78.0915,19.0787 78.2845,18.7447 78.2845,18.5567 C78.2845,18.1977 78.0985,18.0657 78.0985,17.9777 C78.0985,17.8897 78.2035,17.8747 78.2485,17.8747 C78.2915,17.8747 78.3275,17.8857 78.3915,17.9047 C78.2035,17.4757 77.9885,17.5497 77.9885,17.4007 C77.9885,17.3227 78.0365,17.2837 78.1085,17.2587 C78.1655,17.2377 78.1555,17.1697 78.0525,17.1697 C77.9085,17.1697 77.9195,17.2497 77.7725,17.2497 C77.6615,17.2497 77.5735,16.8987 77.9255,16.8277 C77.6855,16.4047 77.9885,16.3977 78.1475,16.4217 C78.0025,16.2367 77.9255,15.8077 77.9255,15.6707 C77.9255,15.1807 78.1415,14.9267 78.3495,14.8067 C78.3155,14.7577 78.2805,14.7287 78.2495,14.6997 C78.1895,14.6467 78.2385,14.6027 78.2915,14.6417 C78.3295,14.6687 78.3755,14.7057 78.4195,14.7707 C78.4465,14.7577 78.4735,14.7477 78.4985,14.7397 C78.4665,14.6897 78.4175,14.6557 78.3885,14.6257 C78.3375,14.5767 78.3765,14.5317 78.4295,14.5607 C78.4565,14.5767 78.5085,14.6067 78.5765,14.7197 C78.6275,14.7097 78.6695,14.7087 78.6975,14.7127 L78.6675,14.8367 C78.3795,14.8367 78.0405,15.1787 78.0405,15.5977 C78.0405,15.8507 78.1435,15.9527 78.1435,15.9527 C78.1435,15.9527 78.1205,15.7697 78.1205,15.6807 C78.1205,15.2877 78.3965,15.0817 78.5355,15.0077 C78.6795,14.9307 78.7015,15.0167 78.6015,15.0647 C78.3445,15.1867 78.1355,15.5267 78.2015,15.8337 C78.2015,15.8707 78.2425,15.8827 78.2425,15.7687 C78.2425,15.0957 78.9065,15.0807 78.9995,15.1067 C79.0525,14.9337 78.7725,14.8357 78.6695,14.8357 L78.7005,14.7117 C78.6755,14.5597 78.2685,14.0907 77.5915,14.0907 C77.0815,14.0907 76.6825,14.3367 76.1395,14.3367 C75.9315,14.3367 75.5615,14.2407 75.3555,14.1127 L75.3555,14.0027 C75.5615,14.1297 75.9285,14.2247 76.1355,14.2247 C76.6785,14.2247 77.0785,13.9797 77.5895,13.9797 C78.3775,13.9797 78.8635,14.6087 78.8315,14.7527" id="Fill-55" fill="#003366" mask="url(#mask-2)"></path>
                            <path d="M75.3516,16.654 L77.8966,19.145 C78.1016,19.308 78.2496,18.793 78.2916,18.647 L75.3516,15.768 L72.4106,18.647 L72.7256,18.839 L72.7286,18.689 L72.6406,18.57 L72.7836,18.526 L72.8676,18.406 L72.9546,18.526 L73.1416,18.434 L73.1436,18.285 L73.0556,18.166 L73.1976,18.122 L73.2836,18.001 L73.3676,18.122 L73.5556,18.03 L73.5586,17.881 L73.4686,17.762 L73.6116,17.718 L73.6976,17.596 L73.7836,17.718 L73.9716,17.625 L73.9736,17.477 L73.8836,17.358 L74.0256,17.313 L74.1126,17.192 L74.1986,17.313 L74.3866,17.221 L74.3876,17.073 L74.2986,16.953 L74.4406,16.909 L74.5276,16.789 L74.6126,16.909 L74.8006,16.817 L74.8026,16.669 L74.7136,16.55 L74.8546,16.505 L74.9416,16.383 L75.0276,16.505 L75.2156,16.412 L75.2166,16.264 L75.1286,16.144 L75.2696,16.099 L75.3566,15.98 L75.4436,16.099 L75.5856,16.144 L75.4966,16.264 L75.4976,16.412 L75.5386,16.55 L75.6826,16.505 L75.7676,16.383 L75.8526,16.505 L75.9966,16.55 L75.9076,16.669 L75.9086,16.817 L76.0966,16.909 L76.1826,16.789 L76.2686,16.909 L76.4116,16.953 L76.3216,17.073 L76.3236,17.221 L76.5126,17.313 L76.5976,17.192 L76.6826,17.313 L76.8256,17.358 L76.7386,17.477 L76.7396,17.625 L76.9256,17.718 L77.0126,17.596 L77.0986,17.718 L77.2406,17.762 L77.1516,17.881 L77.1526,18.03 L77.3406,18.122 L77.4256,18.001 L77.5086,18.123 L77.6496,18.167 L77.5606,18.286 L77.5626,18.435 L77.7506,18.527 L77.8366,18.407 L77.9226,18.527 L78.0636,18.571 L77.9756,18.69 L77.9766,18.84 L77.8366,18.792 L77.6956,18.84 L77.6966,18.69 L77.6076,18.571 L77.7506,18.527 L77.5626,18.435 L77.4206,18.387 L77.2806,18.435 L77.2816,18.286 L77.1936,18.167 L77.3356,18.123 L77.1466,18.031 L77.0066,17.984 L76.8656,18.031 L76.8666,17.882 L76.7776,17.763 L76.9206,17.719 L76.7346,17.626 L76.5916,17.58 L76.4516,17.626 L76.4526,17.478 L76.3636,17.359 L76.5066,17.314 L76.3186,17.222 L76.1796,17.175 L76.0386,17.222 L76.0386,17.074 L75.9506,16.954 L76.0926,16.91 L75.9056,16.818 L75.7646,16.771 L75.6246,16.818 L75.6256,16.67 L75.5366,16.55 L75.4946,16.413 L75.3536,16.365 L75.2126,16.413 L75.0246,16.506 L75.1676,16.55 L75.0786,16.67 L75.0806,16.818 L74.9386,16.771 L74.7976,16.818 L74.6096,16.91 L74.7526,16.954 L74.6636,17.074 L74.6646,17.222 L74.5246,17.175 L74.3836,17.222 L74.1966,17.314 L74.3386,17.359 L74.2486,17.478 L74.2506,17.626 L74.1106,17.58 L73.9696,17.626 L73.7816,17.719 L73.9236,17.763 L73.8356,17.882 L73.8366,18.031 L73.6956,17.984 L73.5536,18.031 L73.3676,18.123 L73.5126,18.167 L73.4226,18.286 L73.4236,18.435 L73.2836,18.387 L73.1416,18.435 L72.9546,18.527 L73.0976,18.571 L73.0076,18.69 L73.0096,18.84 L72.8676,18.792 L72.7256,18.84 L72.4106,18.648 C72.4546,18.794 72.6016,19.309 72.8056,19.146 L75.3516,16.654 Z" id="Fill-56" fill="#003366" mask="url(#mask-2)"></path>
                            <path d="M73.2817,18.0017 C73.4207,18.0017 73.5337,18.1227 73.5337,18.2717 C73.5337,18.4197 73.4207,18.5407 73.2817,18.5407 C73.1417,18.5407 73.0287,18.4197 73.0287,18.2717 C73.0287,18.1227 73.1417,18.0017 73.2817,18.0017" id="Fill-57" fill="#003366" mask="url(#mask-2)"></path>
                            <path d="M74.1157,17.1921 C74.2547,17.1921 74.3667,17.3121 74.3667,17.4621 C74.3667,17.6101 74.2547,17.7311 74.1157,17.7311 C73.9767,17.7311 73.8637,17.6101 73.8637,17.4621 C73.8637,17.3121 73.9767,17.1921 74.1157,17.1921" id="Fill-58" fill="#003366" mask="url(#mask-2)"></path>
                            <path d="M74.9492,16.3581 C75.0892,16.3581 75.2022,16.4781 75.2022,16.6281 C75.2022,16.7761 75.0892,16.8971 74.9492,16.8971 C74.8102,16.8971 74.6972,16.7761 74.6972,16.6281 C74.6972,16.4781 74.8102,16.3581 74.9492,16.3581" id="Fill-59" fill="#003366" mask="url(#mask-2)"></path>
                            <path d="M75.7593,16.3581 C75.8993,16.3581 76.0113,16.4781 76.0113,16.6281 C76.0113,16.7761 75.8993,16.8971 75.7593,16.8971 C75.6193,16.8971 75.5063,16.7761 75.5063,16.6281 C75.5063,16.4781 75.6193,16.3581 75.7593,16.3581" id="Fill-60" fill="#003366" mask="url(#mask-2)"></path>
                            <path d="M76.5918,17.1677 C76.7318,17.1677 76.8448,17.2887 76.8448,17.4377 C76.8448,17.5867 76.7318,17.7067 76.5918,17.7067 C76.4528,17.7067 76.3398,17.5867 76.3398,17.4377 C76.3398,17.2887 76.4528,17.1677 76.5918,17.1677" id="Fill-61" fill="#003366" mask="url(#mask-2)"></path>
                            <path d="M77.4028,18.0017 C77.5428,18.0017 77.6558,18.1227 77.6558,18.2717 C77.6558,18.4197 77.5428,18.5407 77.4028,18.5407 C77.2628,18.5407 77.1498,18.4197 77.1498,18.2717 C77.1498,18.1227 77.2628,18.0017 77.4028,18.0017" id="Fill-62" fill="#003366" mask="url(#mask-2)"></path>
                        </g>
                    </g>
                </g>
            </g>
        </g>
    </g>
</svg>